<svg xmlns="http://www.w3.org/2000/svg" width="294.719" height="177.247" viewBox="0 0 294.719 177.247">
  <g id="cartefidelite" transform="translate(-1.101 -12.564) rotate(4)">
    <g id="Groupe_9" data-name="Groupe 9" transform="translate(14 23.096)" opacity="0.4">
      <g id="Groupe_8" data-name="Groupe 8">
        <path id="Tracé_1" data-name="Tracé 1" d="M287.127,169.631a7.317,7.317,0,0,1-7.365,7.267H21.365A7.317,7.317,0,0,1,14,169.631V38.134a7.317,7.317,0,0,1,7.365-7.267h258.4a7.317,7.317,0,0,1,7.365,7.267v131.5Z" transform="translate(-14 -30.867)" fill="#46612d"/>
        <path id="Tracé_2" data-name="Tracé 2" d="M287.127,169.631a7.317,7.317,0,0,1-7.365,7.267H21.365A7.317,7.317,0,0,1,14,169.631V38.134a7.317,7.317,0,0,1,7.365-7.267h258.4a7.317,7.317,0,0,1,7.365,7.267v131.5Z" transform="translate(-14 -30.867)" fill="none" stroke="#fff" stroke-miterlimit="10" stroke-width="2"/>
      </g>
    </g>
    <g id="Groupe_12" data-name="Groupe 12" transform="translate(20.476 11.163)">
      <path id="Tracé_3" data-name="Tracé 3" d="M301.541,157.151a7.267,7.267,0,0,1-7.267,7.267H31.961a7.268,7.268,0,0,1-7.267-7.267V18.43a7.268,7.268,0,0,1,7.267-7.267H294.274a7.267,7.267,0,0,1,7.267,7.267Z" transform="translate(-24.693 -11.163)" fill="#223f26"/>
      <rect id="Rectangle_19" data-name="Rectangle 19" width="114.57" height="72.302" transform="translate(15.45 0.606)" fill="#f7f7f7"/>
      <g id="Groupe_10" data-name="Groupe 10" transform="translate(24.082 10.184)">
        <path id="Tracé_4" data-name="Tracé 4" d="M195.482,27.979a9.031,9.031,0,0,0-1.93,5.192c-.119,1.431-.154,2.87-.381,4.292a13.211,13.211,0,0,1-1.417,4.311,7.119,7.119,0,0,1-5.013,3.58,12.334,12.334,0,0,1-4.425.1c-.165-.024-.414.018-.389-.293a3.94,3.94,0,0,0,2.379-.662,10.676,10.676,0,0,0,4.707-4.469,11.348,11.348,0,0,0,1.24-3.98,35.51,35.51,0,0,1,.9-4.3.464.464,0,0,0,.021-.286,2.275,2.275,0,0,0-.375.621,16.531,16.531,0,0,0-.849,2.914,20.975,20.975,0,0,1-1.61,4.521,8.679,8.679,0,0,1-4.637,4.193,14.881,14.881,0,0,1-4.417,1.059.541.541,0,0,1-.4-.1,4.291,4.291,0,0,1-.813-.857,6.377,6.377,0,0,0,1.726.015,8.637,8.637,0,0,0,1.13-.226c.151-.04.185-.107.151-.26a10,10,0,0,1,2.755-9.5,19.043,19.043,0,0,1,6.49-4.236,27.339,27.339,0,0,1,4.921-1.589c.023,0,.042-.03.063-.047Z" transform="translate(-109.269 -27.979)" fill="#94c13e" fill-rule="evenodd"/>
        <path id="Tracé_5" data-name="Tracé 5" d="M64.459,87.544a3.948,3.948,0,0,0,.161-.919,9.594,9.594,0,0,1,6.9-7.932,16.275,16.275,0,0,1,6.067-.647,14.9,14.9,0,0,1,5.1,1.146c.379.163.747.348,1.123.515.125.056.164.107.089.246a6.34,6.34,0,0,0-.618,1.974c-.016.1.045.287-.127.3s-.344.077-.5-.094a7.96,7.96,0,0,0-4.856-2.674,8.7,8.7,0,0,0-7.586,2,7.663,7.663,0,0,0-2.232,3.9,12.89,12.89,0,0,0,.239,7.513,7.425,7.425,0,0,0,5.6,4.985,12.036,12.036,0,0,0,6.392-.263c.846-.256.843-.274.863-1.147.036-1.569.053-3.138,0-4.707-.024-.684-.062-1.369-.1-2.052-.01-.163-.015-.234.2-.19a5.942,5.942,0,0,0,2.629-.013c0,.549.011,1.108,0,1.666-.041,1.8-.047,3.608-.038,5.413q0,.676.039,1.351a.258.258,0,0,1-.211.3,19.251,19.251,0,0,1-3.653.893c-.947.135-1.891.3-2.849.354-.02,0-.038.031-.057.048h-.282a.575.575,0,0,0-.395,0h-.677a1.383,1.383,0,0,0-.441-.029c-.116.015-.237-.032-.349.029h-.169c-.416-.063-.839-.033-1.255-.092A11.173,11.173,0,0,1,68.2,97.443a9.321,9.321,0,0,1-3.528-5.664c-.12-.542-.14-1.092-.208-1.639V89.8a.575.575,0,0,0,0-.395V88.221a.432.432,0,0,0,0-.339C64.459,87.769,64.459,87.656,64.459,87.544Z" transform="translate(-64.459 -47.71)" fill="#234026" fill-rule="evenodd"/>
        <path id="Tracé_6" data-name="Tracé 6" d="M82.234,113.416c.153.013.316-.064.458.05h-.451c-.016-.009-.023-.019-.019-.031S82.229,113.416,82.234,113.416Z" transform="translate(-71.464 -61.67)" fill="#4b5d48" fill-rule="evenodd"/>
        <path id="Tracé_7" data-name="Tracé 7" d="M64.459,96.829a.324.324,0,0,1,0,.395Z" transform="translate(-64.459 -55.133)" fill="#51624d" fill-rule="evenodd"/>
        <path id="Tracé_8" data-name="Tracé 8" d="M84.117,113.463a.326.326,0,0,1,.395,0Z" transform="translate(-72.212 -61.667)" fill="#50614d" fill-rule="evenodd"/>
        <path id="Tracé_9" data-name="Tracé 9" d="M64.459,94.314a.254.254,0,0,1,0,.339Z" transform="translate(-64.459 -54.141)" fill="#4d5f4a" fill-rule="evenodd"/>
        <path id="Tracé_10" data-name="Tracé 10" d="M82.027,113.417a.447.447,0,0,1,.007.05h-.339C81.792,113.361,81.915,113.424,82.027,113.417Z" transform="translate(-71.257 -61.671)" fill="#798473" fill-rule="evenodd"/>
        <path id="Tracé_11" data-name="Tracé 11" d="M193.309,66.14c-2.063-.4-4.1-.879-6.132-1.451a12.071,12.071,0,0,0-10.353,1.556,12.31,12.31,0,0,0-2.362,1.863,2.505,2.505,0,0,0-.683,1.179c-.183-.074-.259-.179-.2-.374a13.6,13.6,0,0,1,3.694-6.347,8.215,8.215,0,0,1,5.515-2.227,18.747,18.747,0,0,1,7.479,1.519c1.143.451,2.278.927,3.46,1.269a9.866,9.866,0,0,0,5.5.182c-.143.19-.256.351-.379.5A31.353,31.353,0,0,1,190,71.574a15.628,15.628,0,0,1-6.04,2.044,11.794,11.794,0,0,1-7.428-1.649,6.692,6.692,0,0,1-1.247-.867c-.125-.119-.2-.13-.33.017a8.612,8.612,0,0,0-1.7,2.988,4.255,4.255,0,0,1-.526-1.433.417.417,0,0,1,.075-.266,15.423,15.423,0,0,1,6.008-6.144,9.582,9.582,0,0,1,3.887-1.042,24.03,24.03,0,0,1,6.79.653,17.391,17.391,0,0,0,2.753.423,4.671,4.671,0,0,0,.955-.062C193.228,66.193,193.346,66.253,193.309,66.14Z" transform="translate(-107.161 -40.74)" fill="#94c13e" fill-rule="evenodd"/>
        <path id="Tracé_12" data-name="Tracé 12" d="M199.482,91.136a5.775,5.775,0,0,1,2.1-1.922,5.668,5.668,0,0,1,5.155-.052,4.178,4.178,0,0,1,2.288,3.377,23.714,23.714,0,0,1,.037,4.163c-.011.572-.048,1.145-.043,1.717.013,1.569-.058,3.139.053,4.707.01.133-.039.162-.159.15a12.266,12.266,0,0,0-2.39,0c-.127.013-.163-.031-.157-.154.055-1.266.11-2.533.157-3.8.022-.581.039-1.165.036-1.747a39.524,39.524,0,0,0-.064-4,4.723,4.723,0,0,0-.459-1.615,2.973,2.973,0,0,0-3.247-1.594c-1.848.23-2.8,1.3-3.179,3.2a8,8,0,0,0-.13,1.626c.012,1.748.008,3.5.038,5.245a20.134,20.134,0,0,0,.191,2.638c.024.16-.005.217-.179.2a13.242,13.242,0,0,0-2.5,0c-.161.015-.2-.025-.186-.193a93.209,93.209,0,0,0,.221-9.69,33.95,33.95,0,0,0-.219-4.245c-.03-.243.025-.278.262-.227a4.931,4.931,0,0,0,2.178,0c.22-.051.3-.03.275.223A19.6,19.6,0,0,0,199.482,91.136Z" transform="translate(-116.668 -51.875)" fill="#234027" fill-rule="evenodd"/>
        <path id="Tracé_13" data-name="Tracé 13" d="M200.725,53.679a2.825,2.825,0,0,0,1.761.193,7.991,7.991,0,0,0,4.185-1.578,8.286,8.286,0,0,0,2.206-2.64,24.517,24.517,0,0,1,1.661-2.547l.194-.275c-.184.006-.271.134-.37.227a10.251,10.251,0,0,0-1.337,1.7,15.634,15.634,0,0,1-2.405,2.788,6.377,6.377,0,0,1-4.132,1.616,10.963,10.963,0,0,1-3.421-.437.5.5,0,0,1-.356-.291c-.047-.113-.1-.22-.15-.334s-.071-.21-.12-.36a5.945,5.945,0,0,0,1.394.5c.231.044.485.162.689.081.23-.091.12-.4.17-.6a7.676,7.676,0,0,1,5.393-5.7,15.209,15.209,0,0,1,4.483-.75,21.014,21.014,0,0,1,3.93.231c.026,0,.051.013.107.028a7.641,7.641,0,0,0-1.186.88,8.252,8.252,0,0,0-1.7,2.537,19.377,19.377,0,0,1-1.831,3.387,7.138,7.138,0,0,1-2.636,2.365,5.954,5.954,0,0,1-4.37.143,9.174,9.174,0,0,1-2.006-.879C200.766,53.91,200.63,53.856,200.725,53.679Z" transform="translate(-117.301 -34.799)" fill="#94c13e" fill-rule="evenodd"/>
        <path id="Tracé_14" data-name="Tracé 14" d="M130.8,91.567a11.867,11.867,0,0,1,1.212-1.624,3.812,3.812,0,0,1,2.19-1.287,2.53,2.53,0,0,1,1.412.119c.079.034.157.045.114.171a7.032,7.032,0,0,0-.184,2.178.4.4,0,0,1-.217.386.148.148,0,0,1-.194,0,2.452,2.452,0,0,0-3.021.178,3.975,3.975,0,0,0-1.242,2.547,8.881,8.881,0,0,0-.059,1.435c.006,2.078.009,4.156.024,6.233,0,.4.053.805.091,1.207.013.142-.012.2-.173.183a11.161,11.161,0,0,0-2.306,0c-.144.014-.171-.036-.164-.17.217-3.634.082-7.273.1-10.91,0-1.013-.06-2.026-.1-3.04-.008-.211.007-.3.266-.239a4.449,4.449,0,0,0,2.12,0c.268-.067.28.035.25.241A16.806,16.806,0,0,0,130.8,91.567Z" transform="translate(-89.631 -51.892)" fill="#234027" fill-rule="evenodd"/>
        <path id="Tracé_15" data-name="Tracé 15" d="M120.7,65.541a3.419,3.419,0,0,1,1.908-1.28,3.78,3.78,0,0,1,2.164.109,2.62,2.62,0,0,1,1.728,2.18,14.26,14.26,0,0,1,.034,2.812c-.032,1.221-.061,2.441.012,3.66.011.191.008.283-.239.252a5.58,5.58,0,0,0-1.322,0c-.2.022-.237-.015-.228-.2.044-.928.09-1.856.11-2.784.019-.874.013-1.748,0-2.623a3.065,3.065,0,0,0-.291-1.308,1.641,1.641,0,0,0-1.567-1,2.1,2.1,0,0,0-2.266,1.959,16.422,16.422,0,0,0-.051,2.7c.011,1.022.068,2.045.114,3.067.007.151.005.211-.183.192a8.068,8.068,0,0,0-1.52,0c-.153.014-.191,0-.18-.164.219-3.529.125-7.063.124-10.6,0-1.04-.073-2.082-.127-3.122-.01-.181.038-.177.181-.146a3.636,3.636,0,0,0,1.538,0c.189-.041.174.031.167.165-.041.844-.094,1.688-.107,2.532C120.69,63.126,120.7,64.31,120.7,65.541Z" transform="translate(-85.941 -40.305)" fill="#234027" fill-rule="evenodd"/>
        <path id="Tracé_16" data-name="Tracé 16" d="M101.738,62.672a2.09,2.09,0,0,0,.019-1.349c.883,0,1.764-.022,2.644.005,1.193.038,2.385.039,3.579.021,1.117-.018,2.233-.053,3.35-.089.151,0,.176.025.132.167a1.68,1.68,0,0,0,0,1.079c.066.186-.013.173-.153.156a33.349,33.349,0,0,0-3.512-.2c-.216,0-.258.061-.263.263-.056,2.6-.072,5.2-.028,7.806.018,1.106.084,2.212.139,3.318.009.182-.008.242-.216.223a9.364,9.364,0,0,0-1.633,0c-.167.013-.2-.008-.191-.184.178-2.937.139-5.877.136-8.818,0-.8-.034-1.6-.038-2.394,0-.184-.071-.213-.233-.212a32.387,32.387,0,0,0-3.569.2C101.856,62.669,101.811,62.669,101.738,62.672Z" transform="translate(-79.162 -41.105)" fill="#234027" fill-rule="evenodd"/>
        <path id="Tracé_17" data-name="Tracé 17" d="M206.642,69.92c.038-.01.1,0,.087.027-.034.081-.117.078-.194.068Z" transform="translate(-120.493 -44.519)" fill="#d3e2af" fill-rule="evenodd"/>
        <path id="Tracé_18" data-name="Tracé 18" d="M194.217,31.567a25.9,25.9,0,0,0-4.4,2.659,13.441,13.441,0,0,0-4,4.623,8.826,8.826,0,0,0-1.082,4.486c0,.045,0,.09,0,.2a2.136,2.136,0,0,1-.276-1.042,8.139,8.139,0,0,1,.631-3.2,15.06,15.06,0,0,1,1.41-2.784,6.951,6.951,0,0,1,1.874-1.881,27.98,27.98,0,0,1,5.782-3.118C194.22,31.488,194.231,31.515,194.217,31.567Z" transform="translate(-111.786 -29.368)" fill="#3caa49" fill-rule="evenodd"/>
        <path id="Tracé_19" data-name="Tracé 19" d="M196.113,39.344a5.959,5.959,0,0,1-.043,1.509,17.03,17.03,0,0,1-.5,2.9,10.188,10.188,0,0,1-1.137,2.834,5.2,5.2,0,0,1-1.96,1.73,12.284,12.284,0,0,1-4.045,1.295.735.735,0,0,1-.248-.014,18.4,18.4,0,0,0,3.374-1.383,6.979,6.979,0,0,0,1.8-1.278,6.9,6.9,0,0,0,1.482-2.366,26.545,26.545,0,0,0,.731-2.907C195.76,40.908,195.926,40.154,196.113,39.344Z" transform="translate(-113.255 -32.461)" fill="#3caa49" fill-rule="evenodd"/>
        <path id="Tracé_20" data-name="Tracé 20" d="M200.537,31.316l-.057-.058a3.456,3.456,0,0,1,.962-.392h0A7.533,7.533,0,0,1,200.537,31.316Z" transform="translate(-118.105 -29.118)" fill="#5db347" fill-rule="evenodd"/>
        <path id="Tracé_21" data-name="Tracé 21" d="M202.067,30.8a.23.23,0,0,1,.24-.094.259.259,0,0,1-.24.094Z" transform="translate(-118.731 -29.052)" fill="#5db347" fill-rule="evenodd"/>
        <path id="Tracé_22" data-name="Tracé 22" d="M197.992,70.144a43.254,43.254,0,0,1-3.762,3.067A21.5,21.5,0,0,1,191,75.194a8.462,8.462,0,0,1-2.811.83,19.032,19.032,0,0,1-3.033.087,9.68,9.68,0,0,1-4.141-1,2.564,2.564,0,0,1-.864-.71c.379.15.737.343,1.121.478a11.047,11.047,0,0,0,2.453.573,11.65,11.65,0,0,0,1.736.1,15.847,15.847,0,0,0,3.978-.629,21.477,21.477,0,0,0,5.36-2.569c1.091-.7,2.121-1.476,3.141-2.27C197.989,70.071,198.007,70.09,197.992,70.144Z" transform="translate(-110.086 -44.584)" fill="#3caa49" fill-rule="evenodd"/>
        <path id="Tracé_23" data-name="Tracé 23" d="M191.394,64.218q-.733-.156-1.465-.313c-1.334-.288-2.657-.644-4-.847a7.764,7.764,0,0,0-5.971,1.39,23.526,23.526,0,0,0-2.928,2.54c-.186.19-.32.431-.6.544.272-.386.534-.779.819-1.155a14.167,14.167,0,0,1,1.741-1.912,7.452,7.452,0,0,1,3.664-2.028,8.721,8.721,0,0,1,2.24-.038,17.108,17.108,0,0,1,3.007.522,21.721,21.721,0,0,1,3.267,1.125c.084.037.162.084.243.127A.366.366,0,0,0,191.394,64.218Z" transform="translate(-108.62 -41.533)" fill="#3caa49" fill-rule="evenodd"/>
        <path id="Tracé_24" data-name="Tracé 24" d="M209.577,69.672l-.057-.057.835-.73A3.189,3.189,0,0,1,209.577,69.672Z" transform="translate(-121.671 -44.112)" fill="#55b047" fill-rule="evenodd"/>
        <path id="Tracé_25" data-name="Tracé 25" d="M211.371,68.336a.84.84,0,0,1,.329-.325Z" transform="translate(-122.401 -43.768)" fill="#6eb745" fill-rule="evenodd"/>
        <path id="Tracé_26" data-name="Tracé 26" d="M154.246,75.347c-.262-.06-.266.04-.26.237.021.591.033,1.183.044,1.774.021,1.108.049,2.216.054,3.324.009,1.776,0,3.552,0,5.4l-.16-.285a4.6,4.6,0,0,0-1.227-1.454,5.19,5.19,0,0,0-4.252-.872,6.1,6.1,0,0,0-4.714,3.852,9.449,9.449,0,0,0-.063,7.317,5.91,5.91,0,0,0,9.6,2.035,7.877,7.877,0,0,0,.839-1.126c0,.721.017,1.459-.009,2.2-.01.279.078.324.322.293a7.334,7.334,0,0,1,1.882,0c.236.03.293-.035.288-.273-.035-1.822-.068-3.645-.076-5.467q-.023-5.186.107-10.371c.047-1.877.071-3.754.183-5.629.02-.326.039-.651.061-1A5.775,5.775,0,0,1,154.246,75.347ZM154.189,91.4a8.732,8.732,0,0,1-.758,3.181A4.47,4.47,0,0,1,151.4,96.8a3.585,3.585,0,0,1-4.756-1.622,8.322,8.322,0,0,1-.8-3.82,9.882,9.882,0,0,1,.7-4.126,3.831,3.831,0,0,1,2.052-2.174,3.873,3.873,0,0,1,5.164,2.447A9.648,9.648,0,0,1,154.189,91.4Z" transform="translate(-95.422 -46.64)" fill="#234026" fill-rule="evenodd"/>
        <path id="Tracé_27" data-name="Tracé 27" d="M183.265,93.629a5.484,5.484,0,0,0-3.675-4.61,7.7,7.7,0,0,0-3.611-.34,5.865,5.865,0,0,0-5.066,3.665,10.061,10.061,0,0,0-.736,5.04,6.532,6.532,0,0,0,2.229,4.469,7.365,7.365,0,0,0,5.014,1.742,8.331,8.331,0,0,0,4.966-1.628.448.448,0,0,0,.21-.365c.031-.365.09-.726.139-1.089.019-.139.048-.264-.121-.358-.19-.105-.233.061-.311.139a6.109,6.109,0,0,1-4.156,1.934,4.65,4.65,0,0,1-4.164-1.924,6.276,6.276,0,0,1-1.032-4.094c0-.132.082-.143.187-.146,1.07-.028,2.14-.09,3.209-.085,2.226.01,4.452.053,6.678.091.2,0,.28-.033.29-.25A10.945,10.945,0,0,0,183.265,93.629Zm-2.829,1.127q-1.676.039-3.352.072c-.085,0-.169,0-.254,0-1.174.022-2.347-.065-3.52-.067-.235,0-.265-.078-.233-.3a6.981,6.981,0,0,1,1.1-3.1,3.471,3.471,0,0,1,4.2-1.392,3.167,3.167,0,0,1,1.892,2.035,8.4,8.4,0,0,1,.439,2.538C180.729,94.777,180.571,94.753,180.436,94.756Z" transform="translate(-106.134 -51.892)" fill="#234027" fill-rule="evenodd"/>
        <path id="Tracé_28" data-name="Tracé 28" d="M114.776,102.076c-.089-.039-.128.019-.178.036-.756.263-1.267.042-1.5-.624a3.1,3.1,0,0,1-.125-.973c-.038-2.462.133-4.92.116-7.382A4.3,4.3,0,0,0,109.67,88.8a7.345,7.345,0,0,0-6.345,1.512.235.235,0,0,0-.107.209c0,.47,0,.94,0,1.41,0,.073-.016.168.1.168.185,0,.387.07.5-.188a2.021,2.021,0,0,1,.455-.6,4.337,4.337,0,0,1,3.469-1.225,2.726,2.726,0,0,1,2.417,1.539,4.78,4.78,0,0,1,.44,2.408.944.944,0,0,1-.706.909,12.676,12.676,0,0,1-1.823.46c-.954.2-1.931.28-2.868.561-1.994.6-3.109,1.7-3.262,3.607a3.6,3.6,0,0,0,1.923,3.543,5.536,5.536,0,0,0,5.375-.39,9.026,9.026,0,0,0,1.354-1.08c.031.089.055.157.078.227a1.824,1.824,0,0,0,1.452,1.338,4.835,4.835,0,0,0,2.492-.228c.09-.031.172-.061.168-.189C114.77,102.546,114.776,102.305,114.776,102.076Zm-4.282-2.008a.346.346,0,0,1-.053.212,4.006,4.006,0,0,1-3.554,1.943,2.46,2.46,0,0,1-2.264-2.1,2.738,2.738,0,0,1,.678-2.5,4.334,4.334,0,0,1,1.956-.994c.967-.269,1.968-.377,2.94-.617.127-.031.252-.065.4-.1C110.56,97.312,110.526,98.69,110.494,100.068Z" transform="translate(-79.235 -51.891)" fill="#234026" fill-rule="evenodd"/>
        <path id="Tracé_29" data-name="Tracé 29" d="M213.88,46.457a15.13,15.13,0,0,0-6.223,1.517,7.767,7.767,0,0,0-3.608,3.656c-.062.134-.114.273-.191.457a1.835,1.835,0,0,1,.2-1.027,6.078,6.078,0,0,1,1.16-1.716,12.394,12.394,0,0,1,1.618-1.478,6.484,6.484,0,0,1,2.781-1.067,21.651,21.651,0,0,1,2.919-.352c.374-.021.747-.034,1.122-.045C213.741,46.381,213.839,46.307,213.88,46.457Z" transform="translate(-119.432 -35.23)" fill="#3caa49" fill-rule="evenodd"/>
        <path id="Tracé_30" data-name="Tracé 30" d="M204.88,56.99c.295-.016.6.019.89.016,1.563-.016,3.121-.078,4.406-1.168a6.677,6.677,0,0,0,1.208-1.4c.517-.769,1.04-1.532,1.574-2.318a.356.356,0,0,1-.051.265,12.367,12.367,0,0,1-2.547,3.815,4.027,4.027,0,0,1-2.4,1.05A8.756,8.756,0,0,1,204.88,56.99Z" transform="translate(-119.841 -37.501)" fill="#3caa49" fill-rule="evenodd"/>
        <path id="Tracé_31" data-name="Tracé 31" d="M220.271,46.44c-.059-.082-.147-.042-.223-.056a5.967,5.967,0,0,1,1.351-.036A9.392,9.392,0,0,1,220.271,46.44Z" transform="translate(-125.823 -35.214)" fill="#77ba43" fill-rule="evenodd"/>
        <path id="Tracé_32" data-name="Tracé 32" d="M136.545,72.057c1.737-.083,3.474-.057,5.211,0,.964.038.968.038.944-.922a3.535,3.535,0,0,0-2.169-3.448,4.568,4.568,0,0,0-2.24-.295,3.69,3.69,0,0,0-3.306,2.251,6.192,6.192,0,0,0-.475,3.137,3.881,3.881,0,0,0,1.949,3.213,5.033,5.033,0,0,0,5.126,0,1.045,1.045,0,0,0,.709-1.074.659.659,0,0,1,.036-.222c.036-.135-.03-.2-.139-.268-.131-.081-.165.027-.222.088a3.9,3.9,0,0,1-1.468.967,2.957,2.957,0,0,1-3.751-1.257,3.9,3.9,0,0,1-.406-2.017C136.35,72.041,136.44,72.061,136.545,72.057Zm-.122-1.1a3.826,3.826,0,0,1,1.05-2.247,1.993,1.993,0,0,1,3.091.542,4.324,4.324,0,0,1,.381,1.685c.008.148-.04.182-.187.19-.7.039-1.407.04-2.111.04-.685,0-1.37,0-2.055-.041C136.469,71.117,136.4,71.1,136.423,70.956Z" transform="translate(-92.076 -43.514)" fill="#234027" fill-rule="evenodd"/>
      </g>
      <g id="Groupe_11" data-name="Groupe 11" transform="translate(170.604 40.689)">
        <path id="Tracé_33" data-name="Tracé 33" d="M306.4,89.36a18.061,18.061,0,0,1,.973-6.608,6.358,6.358,0,0,1,2.857-3.4,10.116,10.116,0,0,1,4.772-1c.251,0,.512,0,.785.014s.554.025.847.044.6.044.911.074.638.073.973.133l-.251.529q-.565-.088-1.13-.147c-.377-.039-.733-.064-1.068-.074s-.67-.015-1-.015a9.772,9.772,0,0,0-3.076.457,5.016,5.016,0,0,0-2.323,1.59,8.158,8.158,0,0,0-1.476,3.179,21.2,21.2,0,0,0-.534,5.225,18.85,18.85,0,0,0,.5,4.769,6.9,6.9,0,0,0,1.475,2.944,5.412,5.412,0,0,0,2.292,1.5,9.031,9.031,0,0,0,2.889.441q.626,0,1.915-.074a16.428,16.428,0,0,0,1.915-.191l.251.56q-.44.058-.973.1t-1.13.073q-.6.029-1.13.044c-.357.01-.66.015-.91.015a12.06,12.06,0,0,1-3.391-.441,6.229,6.229,0,0,1-2.637-1.546A7.061,7.061,0,0,1,307,94.467,18.133,18.133,0,0,1,306.4,89.36Z" transform="translate(-306.403 -78.351)" fill="#fff" stroke="#fff" stroke-miterlimit="10" stroke-width="2"/>
        <path id="Tracé_34" data-name="Tracé 34" d="M330.352,99.389a2.723,2.723,0,0,1,.848-2.031,6.849,6.849,0,0,1,2.323-1.4A20.236,20.236,0,0,1,336.945,95q1.946-.382,4.145-.677v-4.21a2.549,2.549,0,0,0-1-2.149,5.585,5.585,0,0,0-3.328-.765q-.565,0-1.256.029t-1.444.117q-.753.089-1.632.236l-.44-.5q1.444-.265,2.606-.368t2.166-.1a10.409,10.409,0,0,1,3.234.412,3.507,3.507,0,0,1,1.79,1.192,3.153,3.153,0,0,1,.565,1.9V101.3a.812.812,0,0,0,.314.736,1.592,1.592,0,0,0,.879.206,8.144,8.144,0,0,0,.816-.044,7.313,7.313,0,0,0,.942-.162l.44.5a10.165,10.165,0,0,1-1.161.206,9.584,9.584,0,0,1-1.036.059,3.567,3.567,0,0,1-1.79-.383,1.118,1.118,0,0,1-.659-.971,10.854,10.854,0,0,1-1.539.692,11.342,11.342,0,0,1-1.79.486,10.915,10.915,0,0,1-2.009.177,10.551,10.551,0,0,1-2.26-.221,5.188,5.188,0,0,1-1.7-.662,3.239,3.239,0,0,1-1.067-1.074A2.792,2.792,0,0,1,330.352,99.389Zm1.256-.147a2.519,2.519,0,0,0,1.162,2.223,5.493,5.493,0,0,0,3.109.78,8.235,8.235,0,0,0,2.166-.265,9.992,9.992,0,0,0,1.758-.647,9.579,9.579,0,0,0,1.288-.736V94.885q-1.7.206-3.391.53a20.162,20.162,0,0,0-3.076.824,6.623,6.623,0,0,0-2.2,1.237A2.3,2.3,0,0,0,331.608,99.242Z" transform="translate(-315.849 -81.61)" fill="#fff" stroke="#fff" stroke-miterlimit="10" stroke-width="2"/>
        <path id="Tracé_35" data-name="Tracé 35" d="M361.674,86.908v.971a7.332,7.332,0,0,1,1.444-.662,11.129,11.129,0,0,1,1.79-.441,12.035,12.035,0,0,1,1.978-.162q.69,0,1.35.044a10.933,10.933,0,0,1,1.288.162l-.314.5q-.628-.089-1.193-.133t-1.13-.044a9.682,9.682,0,0,0-2.637.353,10.025,10.025,0,0,0-2.574,1.177V102.51h-1.256v-15.6Z" transform="translate(-327.707 -81.61)" fill="#fff" stroke="#fff" stroke-miterlimit="10" stroke-width="2"/>
        <path id="Tracé_36" data-name="Tracé 36" d="M385.277,100.407a10.062,10.062,0,0,1-3.516-.471,2.726,2.726,0,0,1-1.57-1.266,4,4,0,0,1-.377-1.737V85.07h-3.328v-.383l3.328-.177.314-3.975h.943v3.975h6.719v.56h-6.719V96.933a2.572,2.572,0,0,0,.942,2.223,5.719,5.719,0,0,0,3.265.692q.628,0,1.256-.03a10.73,10.73,0,0,0,1.319-.147l.251.53c-.544.079-1.047.133-1.507.162S385.7,100.407,385.277,100.407Z" transform="translate(-334.044 -79.213)" fill="#fff" stroke="#fff" stroke-miterlimit="10" stroke-width="2"/>
        <path id="Tracé_37" data-name="Tracé 37" d="M404.564,102.8a10.888,10.888,0,0,1-3.171-.4,4.463,4.463,0,0,1-2.072-1.28,5.291,5.291,0,0,1-1.129-2.355,19.323,19.323,0,0,1,.125-7.875,6.248,6.248,0,0,1,1.35-2.605,4.675,4.675,0,0,1,2.1-1.31,9.5,9.5,0,0,1,2.732-.368,5.175,5.175,0,0,1,3.987,1.457q1.348,1.457,1.35,4.872a3.378,3.378,0,0,1-.031.368c-.022.167-.031.27-.031.309q-.817.059-1.853.133T405.6,93.9q-1.288.074-2.92.117t-3.578.044v.647a15.631,15.631,0,0,0,.534,4.621,3.684,3.684,0,0,0,1.757,2.282,7.06,7.06,0,0,0,3.234.633c.417,0,.837-.015,1.255-.044s.879-.078,1.381-.147,1.025-.152,1.57-.251l.314.53c-.544.1-1.089.187-1.632.265s-1.057.133-1.539.162S405.024,102.8,404.564,102.8ZM399.1,93.531q1.381,0,2.857-.03t2.794-.088q1.318-.058,2.323-.133t1.507-.133a10.8,10.8,0,0,0-.471-3.547,3.607,3.607,0,0,0-1.35-1.883,4.066,4.066,0,0,0-2.26-.574,7.04,7.04,0,0,0-1.979.265,3.917,3.917,0,0,0-1.633.957,4.874,4.874,0,0,0-1.162,1.943A13.923,13.923,0,0,0,399.1,93.531Z" transform="translate(-342.468 -81.61)" fill="#fff" stroke="#fff" stroke-miterlimit="10" stroke-width="2"/>
        <path id="Tracé_38" data-name="Tracé 38" d="M316.993,143.675l-.252-.294a9.374,9.374,0,0,1-1.883.441,15.643,15.643,0,0,1-2.135.147A5.582,5.582,0,0,1,308.077,142a9.158,9.158,0,0,1-1.57-5.8,14.353,14.353,0,0,1,.691-4.931,4.73,4.73,0,0,1,2.292-2.663,9.3,9.3,0,0,1,4.238-.824q.69,0,1.413.044a15.784,15.784,0,0,1,1.6.191v-6.123H318v21.784Zm-.252-.883V128.514q-1-.146-1.57-.191c-.376-.03-.753-.044-1.129-.044a7.9,7.9,0,0,0-3.7.736,4.2,4.2,0,0,0-1.978,2.473,14.95,14.95,0,0,0-.6,4.709,12.155,12.155,0,0,0,.566,3.975,4.914,4.914,0,0,0,1.7,2.443,4.455,4.455,0,0,0,2.7.824q.753,0,1.381-.059a9.265,9.265,0,0,0,1.255-.206C315.778,143.076,316.24,142.949,316.741,142.792Z" transform="translate(-306.444 -95.523)" fill="#fff" stroke="#fff" stroke-miterlimit="10" stroke-width="2"/>
        <path id="Tracé_39" data-name="Tracé 39" d="M339.768,147.8a10.887,10.887,0,0,1-3.171-.4,4.463,4.463,0,0,1-2.072-1.28,5.29,5.29,0,0,1-1.13-2.355,19.322,19.322,0,0,1,.125-7.875,6.261,6.261,0,0,1,1.35-2.605,4.676,4.676,0,0,1,2.1-1.31,9.5,9.5,0,0,1,2.731-.368,5.174,5.174,0,0,1,3.987,1.457q1.349,1.457,1.35,4.872a3.485,3.485,0,0,1-.031.368c-.022.167-.032.27-.032.309q-.816.059-1.853.133t-2.323.147q-1.288.074-2.92.118t-3.578.044v.647a15.654,15.654,0,0,0,.534,4.621,3.685,3.685,0,0,0,1.757,2.282,7.062,7.062,0,0,0,3.234.633c.418,0,.838-.015,1.256-.044s.879-.078,1.381-.147,1.025-.152,1.57-.251l.314.53q-.816.148-1.632.265t-1.538.162Q340.457,147.8,339.768,147.8Zm-5.463-9.273q1.381,0,2.857-.03t2.794-.088q1.319-.058,2.324-.133c.669-.049,1.172-.093,1.507-.133a10.8,10.8,0,0,0-.471-3.547,3.613,3.613,0,0,0-1.35-1.883,4.066,4.066,0,0,0-2.26-.574,7.039,7.039,0,0,0-1.978.265,3.914,3.914,0,0,0-1.633.957,4.868,4.868,0,0,0-1.162,1.943A13.885,13.885,0,0,0,334.305,138.531Z" transform="translate(-316.913 -99.358)" fill="#fff" stroke="#fff" stroke-miterlimit="10" stroke-width="2"/>
        <path id="Tracé_40" data-name="Tracé 40" d="M307.959,189.442V168.836h10.988v.589h-9.733v9.154h7.6v.56h-7.6v10.3h-1.255Z" transform="translate(-307.017 -114.038)" fill="#fff" stroke="#fff" stroke-miterlimit="10" stroke-width="2"/>
        <path id="Tracé_41" data-name="Tracé 41" d="M331.542,169.3a2.121,2.121,0,0,1-.753-.073c-.085-.049-.125-.191-.125-.427s.041-.378.125-.427a4.073,4.073,0,0,1,1.538,0q.094.074.094.427c0,.236-.032.378-.094.427A2.1,2.1,0,0,1,331.542,169.3Zm-.627,19.929v-15.6h1.255v15.6h-1.255Z" transform="translate(-315.971 -113.827)" fill="#fff" stroke="#fff" stroke-miterlimit="10" stroke-width="2"/>
        <path id="Tracé_42" data-name="Tracé 42" d="M351.2,188.675l-.251-.294a9.376,9.376,0,0,1-1.884.441,15.616,15.616,0,0,1-2.134.147A5.581,5.581,0,0,1,342.289,187a9.158,9.158,0,0,1-1.57-5.8,14.352,14.352,0,0,1,.691-4.931A4.73,4.73,0,0,1,343.7,173.6a9.3,9.3,0,0,1,4.239-.824q.69,0,1.412.044a15.784,15.784,0,0,1,1.6.191v-6.123h1.255v21.784Zm-.251-.883V173.514q-1.006-.146-1.57-.191c-.377-.03-.753-.044-1.131-.044a7.906,7.906,0,0,0-3.7.736,4.2,4.2,0,0,0-1.978,2.473,14.934,14.934,0,0,0-.6,4.709,12.158,12.158,0,0,0,.565,3.975,4.915,4.915,0,0,0,1.7,2.443,4.453,4.453,0,0,0,2.7.824q.753,0,1.381-.059a9.249,9.249,0,0,0,1.256-.206C349.99,188.076,350.451,187.949,350.954,187.792Z" transform="translate(-319.937 -113.271)" fill="#fff" stroke="#fff" stroke-miterlimit="10" stroke-width="2"/>
        <path id="Tracé_43" data-name="Tracé 43" d="M373.98,188.011a10.886,10.886,0,0,1-3.171-.4,4.462,4.462,0,0,1-2.072-1.28,5.29,5.29,0,0,1-1.129-2.355,19.323,19.323,0,0,1,.125-7.875,6.248,6.248,0,0,1,1.35-2.605,4.675,4.675,0,0,1,2.1-1.31,9.5,9.5,0,0,1,2.732-.368,5.175,5.175,0,0,1,3.987,1.457q1.348,1.457,1.35,4.872a3.385,3.385,0,0,1-.031.368c-.022.167-.031.27-.031.309q-.817.059-1.853.133t-2.323.147q-1.288.074-2.92.117t-3.578.044v.647a15.631,15.631,0,0,0,.534,4.621,3.685,3.685,0,0,0,1.757,2.282,7.06,7.06,0,0,0,3.234.633c.417,0,.837-.015,1.255-.044s.879-.078,1.381-.147,1.025-.152,1.57-.251l.314.53c-.544.1-1.089.187-1.632.265s-1.057.133-1.539.162S374.44,188.011,373.98,188.011Zm-5.463-9.273q1.381,0,2.857-.03t2.794-.088q1.318-.058,2.323-.133t1.507-.133a10.8,10.8,0,0,0-.471-3.547,3.607,3.607,0,0,0-1.35-1.883,4.066,4.066,0,0,0-2.26-.574,7.041,7.041,0,0,0-1.979.265,3.917,3.917,0,0,0-1.633.957,4.875,4.875,0,0,0-1.162,1.943A13.927,13.927,0,0,0,368.517,178.738Zm4.4-8.566,5.023-5.711h1.381l-5.211,5.711Z" transform="translate(-330.406 -112.313)" fill="#fff" stroke="#fff" stroke-miterlimit="10" stroke-width="2"/>
        <path id="Tracé_44" data-name="Tracé 44" d="M395.266,166.892v19.281a3.119,3.119,0,0,0,.251,1.4,1.256,1.256,0,0,0,.722.648,3.621,3.621,0,0,0,1.162.162c.21,0,.449-.01.722-.03s.638-.068,1.1-.147l.251.559a9.092,9.092,0,0,1-1.1.162c-.356.03-.681.044-.973.044a6.807,6.807,0,0,1-1.883-.221,1.9,1.9,0,0,1-1.13-.824,3.338,3.338,0,0,1-.377-1.752V166.893h1.255Z" transform="translate(-340.955 -113.271)" fill="#fff" stroke="#fff" stroke-miterlimit="10" stroke-width="2"/>
        <path id="Tracé_45" data-name="Tracé 45" d="M408.264,169.3a2.124,2.124,0,0,1-.753-.073c-.084-.049-.125-.191-.125-.427s.041-.378.125-.427a4.076,4.076,0,0,1,1.539,0c.063.049.094.191.094.427s-.031.378-.094.427A2.1,2.1,0,0,1,408.264,169.3Zm-.627,19.929v-15.6h1.255v15.6h-1.255Z" transform="translate(-346.23 -113.827)" fill="#fff" stroke="#fff" stroke-miterlimit="10" stroke-width="2"/>
        <path id="Tracé_46" data-name="Tracé 46" d="M424.054,190.407a10.061,10.061,0,0,1-3.517-.471,2.724,2.724,0,0,1-1.57-1.266,4,4,0,0,1-.377-1.737V175.071h-3.328v-.383l3.328-.177.314-3.975h.942v3.975h6.719v.56h-6.719v11.863a2.572,2.572,0,0,0,.942,2.223,5.717,5.717,0,0,0,3.265.692q.626,0,1.255-.03a10.705,10.705,0,0,0,1.318-.147l.252.53q-.818.118-1.507.162T424.054,190.407Z" transform="translate(-349.337 -114.709)" fill="#fff" stroke="#fff" stroke-miterlimit="10" stroke-width="2"/>
        <path id="Tracé_47" data-name="Tracé 47" d="M443.34,188.011a10.884,10.884,0,0,1-3.17-.4,4.463,4.463,0,0,1-2.072-1.28,5.291,5.291,0,0,1-1.131-2.355,19.324,19.324,0,0,1,.125-7.875,6.269,6.269,0,0,1,1.35-2.605,4.674,4.674,0,0,1,2.1-1.31,9.5,9.5,0,0,1,2.731-.368,5.172,5.172,0,0,1,3.987,1.457q1.35,1.457,1.35,4.872a3.536,3.536,0,0,1-.031.368q-.032.25-.031.309-.817.059-1.853.133t-2.323.147q-1.287.074-2.919.117t-3.579.044v.647a15.654,15.654,0,0,0,.534,4.621,3.687,3.687,0,0,0,1.758,2.282,7.06,7.06,0,0,0,3.234.633q.627,0,1.255-.044t1.381-.147q.754-.1,1.57-.251l.314.53q-.817.148-1.633.265c-.544.079-1.057.133-1.538.162S443.8,188.011,443.34,188.011Zm-5.463-9.273q1.381,0,2.857-.03t2.794-.088q1.319-.058,2.324-.133t1.507-.133a10.818,10.818,0,0,0-.471-3.547,3.614,3.614,0,0,0-1.35-1.883,4.066,4.066,0,0,0-2.26-.574,7.043,7.043,0,0,0-1.978.265,3.911,3.911,0,0,0-1.632.957,4.861,4.861,0,0,0-1.162,1.943A13.881,13.881,0,0,0,437.877,178.738Zm4.4-8.566,5.023-5.711h1.381l-5.211,5.711Z" transform="translate(-357.761 -112.313)" fill="#fff" stroke="#fff" stroke-miterlimit="10" stroke-width="2"/>
      </g>
      <path id="Tracé_48" data-name="Tracé 48" d="M93.049,155.139C88,154.67,83.034,153.62,78.057,152.68c-10.465-1.976-20.93-2.7-31.451-.364A33.858,33.858,0,0,0,26,165.6c-.457.621-.891,1.25-1.312,1.884v15.676c.771-.782,1.557-1.553,2.346-2.322,11.363-11.067,25.107-15.665,40.709-14.314,8.651.75,17.282,1.108,25.945,1.131.236.426-.288.274-.358.469a19.324,19.324,0,0,1-3.819.987,71.568,71.568,0,0,1-11.474.421c-9.431-.187-18.8.134-28,2.61a39.529,39.529,0,0,0-14.929,7.225,55.08,55.08,0,0,0-10.425,11.215v11.185a28.134,28.134,0,0,0,5.6,2.471,48.618,48.618,0,0,0,31.345.926,64.4,64.4,0,0,0,22.87-12.95c12.584-10.685,22.054-23.814,29.81-38.269.381-.712.715-1.45,1.146-2.329C107.126,155.1,101.8,155.951,93.049,155.139Z" transform="translate(-24.693 -66.257)" fill="#94c13e" fill-rule="evenodd"/>
      <path id="Tracé_49" data-name="Tracé 49" d="M228.98,214.322h1.578a11.032,11.032,0,0,1-.913-1.933,37.947,37.947,0,0,1-1.828-9.081c-1.351-11.772,2.21-22,10.135-30.6,4.395-4.77,8.549-9.708,12.521-14.819.36.056.03.295.114.426a14.372,14.372,0,0,1-1.162,2.708A53.362,53.362,0,0,1,244.433,168c-4.418,5.49-8.509,11.176-11.245,17.74a29.514,29.514,0,0,0-2.549,12.125,42.735,42.735,0,0,0,3.81,16.461h4.505c.024-.01.037-.02.062-.029a20.5,20.5,0,0,0,4.116-2.218A36.315,36.315,0,0,0,258,193.972a48.114,48.114,0,0,0,2.792-19.434c-.567-12.319-4-23.913-9-35.1-.247-.55-.531-1.085-.853-1.741-1.752,6.516-3.679,10.053-8.157,14.856-2.585,2.771-5.473,5.226-8.3,7.738-5.948,5.283-11.157,11.138-14.582,18.424a25.294,25.294,0,0,0-1.558,18.245C220.282,203.774,224.115,209.384,228.98,214.322Z" transform="translate(-100.662 -61.067)" fill="#94c13e" fill-rule="evenodd" opacity="0.6"/>
      <path id="Tracé_50" data-name="Tracé 50" d="M420.419,18.383a5.917,5.917,0,0,1-.732,3.128,29.012,29.012,0,0,1-4.055,5.822,28.468,28.468,0,0,1-22.294,10.608c-4.967.1-9.9.416-14.829.927-.16-.228.147-.173.176-.288a10.979,10.979,0,0,1,2.113-.792,40.813,40.813,0,0,1,6.5-.934,56.729,56.729,0,0,0,15.769-3.18,22.6,22.6,0,0,0,8.058-5.014c4.878-4.891,7.616-10.9,9.225-17.5H417.8a19.982,19.982,0,0,1-1.293,3.89c-.188.42-.368.448-.733.265a15.694,15.694,0,0,0-3.408-1.1,27.809,27.809,0,0,0-17.889,1.37,36.849,36.849,0,0,0-12.228,8.752c-6.513,6.84-11.106,14.884-14.645,23.577-.173.429-.319.869-.512,1.395a23.271,23.271,0,0,1,12.539-3.36c2.9-.038,5.79.259,8.679.492,6.073.491,12.071.269,17.916-1.7a19.37,19.37,0,0,0,10.915-8.805c3.043-5.2,4.033-10.909,3.986-16.853C421.126,18.609,420.883,18.425,420.419,18.383Z" transform="translate(-159.735 -11.163)" fill="#94c13e" fill-rule="evenodd" opacity="0.8"/>
      <path id="Tracé_51" data-name="Tracé 51" d="M430.843,195.319c-.145-.028-.29-.054-.435-.084-4.6-.959-8.811-2.945-13.015-4.971-16.053-7.738-26.191-20.48-30.765-37.469-2.536-9.421-5.477-18.67-8.784-27.824.36-.412.4.2.633.2a21.625,21.625,0,0,1,2.511,3.652,80.422,80.422,0,0,1,4.857,11.95c3.431,10.028,7.373,19.8,13.521,28.549A44.414,44.414,0,0,0,412.734,182.3a62.449,62.449,0,0,0,18.108,7.259V145.873c-.351-.5-.7-.994-1.074-1.485A72.36,72.36,0,0,0,407.3,125.225c-16.119-9.175-33.621-14.122-51.863-16.752-.9-.128-1.805-.2-2.9-.315,6.878,7.461,9.827,12.753,12.336,22.306,1.447,5.512,2.248,11.156,3.17,16.771,1.939,11.807,5.2,23.133,11.711,33.341A38.042,38.042,0,0,0,401.7,197.216c9.73,2.857,19.446,2.665,29.139.729v-2.626Z" transform="translate(-153.995 -49.418)" fill="#94c13e" fill-rule="evenodd" opacity="0.1"/>
      <path id="Tracé_52" data-name="Tracé 52" d="M80.807,215.064l.417,1.373a10.094,10.094,0,0,1,1.44-1.306,34.481,34.481,0,0,1,7.413-3.988c9.877-4.287,19.708-3.892,29.283.724,5.309,2.56,10.7,4.867,16.194,6.97.047.326-.248.1-.341.211a13.147,13.147,0,0,1-2.661-.294,48.424,48.424,0,0,1-7.383-2.5c-5.941-2.39-11.965-4.445-18.4-5.088a26.822,26.822,0,0,0-11.216.989,38.841,38.841,0,0,0-13.305,7.663l1.191,3.917a.513.513,0,0,1,.041.047,18.69,18.69,0,0,0,3.016,2.992,33,33,0,0,0,19.669,8.141,43.731,43.731,0,0,0,17.634-2.708c10.561-3.75,19.734-9.8,28.139-17.1.414-.36.8-.749,1.289-1.2a27.624,27.624,0,0,1-15.072-3.167c-3.092-1.516-5.989-3.377-8.921-5.172-6.166-3.775-12.632-6.757-19.872-7.809a22.984,22.984,0,0,0-16.274,3.467A36.772,36.772,0,0,0,80.807,215.064Z" transform="translate(-46.824 -84.646)" fill="#94c13e" fill-rule="evenodd" opacity="0.5"/>
    </g>
  </g>
</svg>
