<?xml version="1.0" encoding="utf-8"?>
<!-- Generator: Adobe Illustrator 16.0.0, SVG Export Plug-In . SVG Version: 6.00 Build 0)  -->
<!DOCTYPE svg PUBLIC "-//W3C//DTD SVG 1.1//EN" "http://www.w3.org/Graphics/SVG/1.1/DTD/svg11.dtd">
<svg version="1.1" id="Calque_1" xmlns="http://www.w3.org/2000/svg" xmlns:xlink="http://www.w3.org/1999/xlink" x="0px" y="0px"
	 width="495px" height="283px" viewBox="0 0 495 283" enable-background="new 0 0 495 283" xml:space="preserve">
<g>
	<g opacity="0.4">
		<defs>
			<filter id="Adobe_OpacityMaskFilter" filterUnits="userSpaceOnUse" x="13" y="29.867" width="453" height="243.133">
				<feFlood  style="flood-color:white;flood-opacity:1" result="back"/>
				<feBlend  in="SourceGraphic" in2="back" mode="normal"/>
			</filter>
		</defs>
		<mask maskUnits="userSpaceOnUse" x="13" y="29.867" width="453" height="243.133" id="SVGID_1_">
			<g filter="url(#Adobe_OpacityMaskFilter)">
				
					<image overflow="visible" width="1905" height="1030" xlink:href="1E437E21.jpg"  transform="matrix(0.24 0 0 0.24 11 27.8667)">
				</image>
			</g>
		</mask>
		<g mask="url(#SVGID_1_)">
			<path fill="#46612D" d="M465,260c0,6.627-5.445,12-12.162,12H26.162C19.445,272,14,266.627,14,260V42.867
				c0-6.627,5.445-12,12.162-12h426.676c6.717,0,12.162,5.373,12.162,12V260z"/>
			<path fill="none" stroke="#FFFFFF" stroke-width="2" stroke-miterlimit="10" d="M465,260c0,6.627-5.445,12-12.162,12H26.162
				C19.445,272,14,266.627,14,260V42.867c0-6.627,5.445-12,12.162-12h426.676c6.717,0,12.162,5.373,12.162,12V260z"/>
		</g>
	</g>
	<g>
		<path fill="#223F26" d="M481.837,252.225c0,6.627-5.372,12-12,12H36.694c-6.627,0-12-5.373-12-12V23.163c0-6.627,5.373-12,12-12
			h433.143c6.628,0,12,5.373,12,12V252.225z"/>
		<rect x="50.204" y="12.163" fill="#F7F7F7" width="189.184" height="119.388"/>
		<g>
			<path fill-rule="evenodd" clip-rule="evenodd" fill="#94C13E" d="M206.819,27.979c-2.057,2.488-2.924,5.412-3.187,8.574
				c-0.196,2.363-0.255,4.739-0.629,7.087c-0.398,2.5-1.123,4.894-2.34,7.118c-1.803,3.296-4.677,5.124-8.277,5.912
				c-2.422,0.53-4.862,0.521-7.306,0.17c-0.272-0.039-0.683,0.03-0.643-0.484c1.457,0.19,2.704-0.441,3.928-1.093
				c3.269-1.741,6.031-4.022,7.772-7.38c1.074-2.071,1.785-4.246,2.048-6.572c0.272-2.409,0.923-4.743,1.488-7.093
				c0.032-0.135,0.096-0.263,0.034-0.473c-0.291,0.323-0.461,0.673-0.62,1.025c-0.69,1.538-1.007,3.187-1.402,4.811
				c-0.628,2.581-1.457,5.081-2.659,7.466c-1.668,3.311-4.282,5.526-7.657,6.923c-2.338,0.968-4.775,1.526-7.294,1.748
				c-0.245,0.021-0.463-0.013-0.658-0.163c-0.491-0.379-0.905-0.831-1.343-1.415c1.013,0.142,1.932,0.142,2.85,0.025
				c0.632-0.08,1.251-0.211,1.866-0.374c0.25-0.066,0.305-0.176,0.25-0.43c-1.301-6.044,0.317-11.256,4.549-15.686
				c3.021-3.163,6.732-5.298,10.717-6.995c2.628-1.119,5.33-2.018,8.125-2.624c0.038-0.008,0.069-0.05,0.104-0.077
				C206.633,27.979,206.726,27.979,206.819,27.979z"/>
			<path fill-rule="evenodd" clip-rule="evenodd" fill="#234026" d="M64.459,93.755c0.21-0.484,0.176-1.013,0.266-1.518
				c1.187-6.644,5.009-10.997,11.398-13.097c3.256-1.07,6.617-1.26,10.018-1.068c2.917,0.165,5.738,0.735,8.427,1.893
				c0.625,0.269,1.234,0.574,1.855,0.851c0.207,0.092,0.27,0.176,0.147,0.406c-0.543,1.021-0.834,2.124-1.021,3.26
				c-0.027,0.169,0.074,0.474-0.209,0.49c-0.27,0.014-0.568,0.127-0.819-0.156c-2.146-2.424-4.846-3.93-8.018-4.415
				c-4.619-0.706-8.938,0.025-12.527,3.301c-1.907,1.742-3.067,3.966-3.685,6.443c-1.038,4.162-1.032,8.324,0.395,12.406
				c1.552,4.44,4.734,7.142,9.254,8.231c3.54,0.853,7.078,0.618,10.555-0.434c1.397-0.423,1.392-0.453,1.425-1.894
				c0.059-2.591,0.088-5.182-0.002-7.773c-0.04-1.13-0.103-2.26-0.171-3.389c-0.016-0.269-0.024-0.386,0.328-0.314
				c1.602,0.326,2.778,0.301,4.341-0.021c0,0.907,0.018,1.829-0.003,2.751c-0.067,2.979-0.077,5.958-0.063,8.938
				c0.003,0.744,0.025,1.488,0.064,2.231c0.015,0.284-0.092,0.402-0.348,0.492c-1.963,0.687-3.974,1.181-6.032,1.474
				c-1.564,0.223-3.123,0.498-4.704,0.584c-0.033,0.002-0.063,0.052-0.094,0.08c-0.155,0-0.311,0-0.466,0
				c-0.217-0.077-0.435-0.077-0.652,0c-0.373,0-0.745,0-1.118,0c-0.237-0.105-0.486-0.021-0.728-0.048
				c-0.191,0.025-0.391-0.053-0.576,0.048c-0.093,0-0.186,0-0.279,0c-0.687-0.104-1.385-0.055-2.073-0.152
				c-3.144-0.448-6.137-1.321-8.715-3.254c-3.144-2.356-4.981-5.546-5.825-9.353c-0.198-0.895-0.231-1.804-0.344-2.707
				c0-0.187,0-0.373,0-0.559c0.077-0.217,0.077-0.435,0-0.652c0-0.652,0-1.304,0-1.957c0.076-0.186,0.076-0.373,0-0.559
				C64.459,94.127,64.459,93.941,64.459,93.755z"/>
			<path fill-rule="evenodd" clip-rule="evenodd" fill="#4B5D48" d="M82.243,113.425c0.253,0.021,0.521-0.105,0.756,0.082
				c-0.248,0-0.497,0-0.745,0c-0.027-0.015-0.038-0.032-0.032-0.051C82.228,113.435,82.235,113.425,82.243,113.425z"/>
			<path fill-rule="evenodd" clip-rule="evenodd" fill="#51624D" d="M64.459,96.829c0.14,0.217,0.156,0.435,0,0.652
				C64.459,97.264,64.459,97.046,64.459,96.829z"/>
			<path fill-rule="evenodd" clip-rule="evenodd" fill="#50614D" d="M84.117,113.506c0.217-0.144,0.435-0.149,0.652,0
				C84.552,113.506,84.334,113.506,84.117,113.506z"/>
			<path fill-rule="evenodd" clip-rule="evenodd" fill="#4D5F4A" d="M64.459,94.314c0.142,0.186,0.143,0.373,0,0.559
				C64.459,94.687,64.459,94.5,64.459,94.314z"/>
			<path fill-rule="evenodd" clip-rule="evenodd" fill="#798473" d="M82.243,113.425c0.005,0.027,0.009,0.054,0.011,0.082
				c-0.187,0-0.373,0-0.559,0C81.855,113.332,82.058,113.437,82.243,113.425z"/>
			<path fill-rule="evenodd" clip-rule="evenodd" fill="#94C13E" d="M206.711,69.922c-3.407-0.661-6.777-1.451-10.125-2.396
				c-6.038-1.706-11.792-0.931-17.096,2.57c-1.389,0.917-2.766,1.842-3.901,3.076c-0.516,0.561-0.965,1.168-1.127,1.947
				c-0.302-0.122-0.428-0.295-0.333-0.617c1.178-3.992,3.003-7.612,6.1-10.48c2.563-2.373,5.61-3.574,9.106-3.678
				c4.316-0.128,8.379,0.944,12.349,2.509c1.888,0.744,3.762,1.531,5.714,2.095c3.383,0.978,5.542,1.043,9.084,0.301
				c-0.236,0.313-0.423,0.579-0.626,0.83c-4.14,5.104-8.854,9.559-14.609,12.816c-3.106,1.758-6.404,2.988-9.974,3.375
				c-4.39,0.477-8.472-0.489-12.265-2.723c-0.722-0.425-1.446-0.85-2.059-1.431c-0.207-0.197-0.333-0.214-0.545,0.028
				c-1.251,1.434-2.172,3.052-2.801,4.934c-0.421-0.789-0.756-1.535-0.869-2.367c-0.022-0.163,0.046-0.306,0.124-0.44
				c2.447-4.222,5.552-7.805,9.92-10.146c2.002-1.073,4.163-1.553,6.418-1.72c3.803-0.283,7.515,0.296,11.212,1.079
				c1.501,0.318,3.007,0.623,4.546,0.698c0.529,0.025,1.055-0.019,1.577-0.102C206.578,70.009,206.772,70.108,206.711,69.922z"/>
			<path fill-rule="evenodd" clip-rule="evenodd" fill="#234027" d="M201.205,92.809c0.992-1.382,2.066-2.481,3.466-3.174
				c2.812-1.393,5.696-1.423,8.512-0.086c2.301,1.093,3.394,3.139,3.778,5.576c0.36,2.283,0.104,4.582,0.061,6.874
				c-0.018,0.945-0.079,1.891-0.071,2.836c0.022,2.591-0.095,5.184,0.088,7.773c0.016,0.219-0.065,0.267-0.262,0.248
				c-1.315-0.125-2.632-0.131-3.947,0.001c-0.209,0.021-0.269-0.052-0.259-0.254c0.091-2.09,0.182-4.182,0.26-6.273
				c0.036-0.96,0.064-1.923,0.06-2.884c-0.012-2.203,0.129-4.408-0.106-6.606c-0.099-0.929-0.34-1.827-0.758-2.667
				c-1.003-2.022-2.961-2.931-5.362-2.632c-3.051,0.38-4.623,2.147-5.249,5.283c-0.177,0.886-0.221,1.784-0.215,2.685
				c0.019,2.887,0.013,5.775,0.063,8.661c0.025,1.456,0.1,2.913,0.316,4.356c0.04,0.264-0.009,0.359-0.295,0.332
				c-1.377-0.13-2.756-0.133-4.133-0.002c-0.266,0.025-0.336-0.042-0.307-0.319c0.565-5.323,0.355-10.665,0.365-16
				c0.004-2.339-0.073-4.683-0.362-7.01c-0.05-0.402,0.041-0.459,0.433-0.375c1.194,0.257,2.401,0.278,3.596-0.001
				c0.363-0.085,0.494-0.049,0.454,0.368C201.227,90.564,201.203,91.615,201.205,92.809z"/>
			<path fill-rule="evenodd" clip-rule="evenodd" fill="#94C13E" d="M202.213,59.156c0.926,0.509,1.918,0.433,2.908,0.318
				c2.519-0.293,4.885-0.996,6.91-2.605c1.515-1.204,2.736-2.645,3.642-4.36c0.784-1.485,1.784-2.832,2.743-4.205
				c0.098-0.14,0.197-0.279,0.321-0.454c-0.303,0.01-0.447,0.221-0.611,0.374c-0.881,0.823-1.525,1.834-2.208,2.814
				c-1.165,1.672-2.44,3.24-3.972,4.604c-1.956,1.741-4.24,2.566-6.823,2.669c-1.924,0.077-3.802-0.203-5.649-0.722
				c-0.268-0.075-0.477-0.213-0.588-0.48c-0.078-0.186-0.173-0.364-0.248-0.551c-0.067-0.17-0.117-0.347-0.198-0.594
				c0.782,0.366,1.514,0.682,2.302,0.833c0.381,0.073,0.801,0.268,1.138,0.133c0.38-0.151,0.198-0.654,0.28-0.994
				c1.169-4.845,4.294-7.833,8.905-9.409c2.397-0.82,4.878-1.159,7.402-1.238c2.175-0.068,4.339,0.044,6.489,0.382
				c0.043,0.007,0.084,0.022,0.176,0.047c-0.708,0.452-1.374,0.897-1.958,1.453c-1.249,1.188-2.078,2.655-2.804,4.189
				c-0.909,1.918-1.745,3.877-3.024,5.592c-1.188,1.591-2.511,3.049-4.352,3.906c-2.365,1.1-4.786,0.966-7.216,0.236
				c-1.162-0.349-2.266-0.837-3.313-1.451C202.28,59.536,202.056,59.448,202.213,59.156z"/>
			<path fill-rule="evenodd" clip-rule="evenodd" fill="#234027" d="M132.444,93.493c0.622-0.939,1.236-1.868,2.002-2.681
				c0.998-1.058,2.136-1.896,3.616-2.125c0.786-0.122,1.576-0.127,2.332,0.196c0.131,0.056,0.259,0.074,0.188,0.282
				c-0.401,1.172-0.278,2.393-0.304,3.597c-0.006,0.308-0.11,0.493-0.358,0.638c-0.114,0.066-0.181,0.094-0.321,0
				c-1.573-1.06-3.547-0.943-4.988,0.294c-1.286,1.104-1.796,2.593-2.051,4.205c-0.125,0.786-0.101,1.578-0.098,2.369
				c0.01,3.431,0.014,6.862,0.039,10.292c0.005,0.665,0.088,1.33,0.15,1.993c0.022,0.234-0.019,0.332-0.286,0.303
				c-1.268-0.138-2.539-0.124-3.808,0.001c-0.238,0.023-0.283-0.06-0.27-0.28c0.358-6.001,0.136-12.01,0.167-18.015
				c0.008-1.673-0.099-3.346-0.168-5.019c-0.014-0.348,0.012-0.496,0.439-0.395c1.161,0.276,2.34,0.287,3.5-0.001
				c0.443-0.11,0.462,0.057,0.412,0.398C132.449,90.85,132.445,92.165,132.444,93.493z"/>
			<path fill-rule="evenodd" clip-rule="evenodd" fill="#234027" d="M121.86,69.651c0.868-1.058,1.858-1.824,3.15-2.113
				c1.204-0.27,2.411-0.247,3.573,0.18c1.67,0.613,2.562,1.892,2.854,3.599c0.265,1.541,0.097,3.096,0.056,4.644
				c-0.053,2.016-0.101,4.03,0.02,6.044c0.019,0.316,0.014,0.468-0.395,0.416c-0.723-0.092-1.458-0.083-2.183-0.002
				c-0.322,0.037-0.392-0.025-0.376-0.338c0.073-1.532,0.149-3.064,0.182-4.597c0.031-1.443,0.022-2.887,0.007-4.331
				c-0.007-0.749-0.154-1.48-0.48-2.16c-0.518-1.081-1.387-1.636-2.588-1.647c-2.097-0.021-3.418,1.128-3.742,3.234
				c-0.228,1.483-0.102,2.974-0.085,4.46c0.018,1.688,0.113,3.376,0.189,5.064c0.011,0.25,0.009,0.348-0.302,0.317
				c-0.834-0.082-1.675-0.076-2.51,0c-0.253,0.023-0.315-0.001-0.298-0.271c0.362-5.828,0.207-11.663,0.205-17.496
				c-0.001-1.718-0.12-3.438-0.209-5.155c-0.016-0.299,0.062-0.292,0.299-0.241c0.844,0.179,1.697,0.18,2.539-0.003
				c0.312-0.068,0.287,0.051,0.276,0.273c-0.068,1.394-0.155,2.787-0.176,4.181C121.838,65.663,121.86,67.617,121.86,69.651z"/>
			<path fill-rule="evenodd" clip-rule="evenodd" fill="#234027" d="M101.738,63.592c0.264-0.79,0.26-1.549,0.031-2.227
				c1.458,0,2.913-0.036,4.366,0.009c1.97,0.062,3.939,0.065,5.909,0.034c1.844-0.029,3.688-0.087,5.531-0.147
				c0.25-0.008,0.29,0.042,0.218,0.276c-0.182,0.591-0.208,1.193,0.002,1.782c0.109,0.307-0.022,0.286-0.252,0.258
				c-1.926-0.229-3.861-0.302-5.8-0.327c-0.357-0.004-0.426,0.1-0.434,0.435c-0.092,4.296-0.119,8.593-0.047,12.89
				c0.03,1.827,0.138,3.653,0.229,5.479c0.015,0.3-0.013,0.4-0.357,0.368c-0.896-0.083-1.798-0.075-2.696-0.001
				c-0.275,0.022-0.333-0.013-0.315-0.304c0.294-4.85,0.23-9.705,0.225-14.56c-0.001-1.318-0.056-2.635-0.063-3.953
				c-0.001-0.304-0.117-0.352-0.384-0.35c-1.97,0.014-3.936,0.093-5.894,0.324C101.933,63.587,101.859,63.586,101.738,63.592z"/>
			<path fill-rule="evenodd" clip-rule="evenodd" fill="#D3E2AF" d="M206.711,69.922c0.062-0.016,0.164-0.001,0.144,0.045
				c-0.056,0.134-0.193,0.129-0.32,0.113C206.594,70.027,206.653,69.975,206.711,69.922z"/>
			<path fill-rule="evenodd" clip-rule="evenodd" fill="#3CAA49" d="M200.574,31.609c-2.563,1.231-4.999,2.677-7.27,4.39
				c-2.745,2.07-5.028,4.554-6.598,7.634c-1.182,2.319-1.916,4.764-1.786,7.408c0.003,0.074,0,0.148,0,0.338
				c-0.35-0.601-0.43-1.161-0.455-1.721c-0.08-1.845,0.407-3.589,1.042-5.292c0.603-1.616,1.405-3.139,2.328-4.597
				c0.801-1.265,1.9-2.244,3.095-3.106c2.956-2.132,6.186-3.766,9.548-5.149C200.578,31.479,200.596,31.524,200.574,31.609z"/>
			<path fill-rule="evenodd" clip-rule="evenodd" fill="#3CAA49" d="M201.278,39.344c0.134,0.904,0.003,1.702-0.071,2.492
				c-0.15,1.611-0.396,3.214-0.822,4.781c-0.443,1.632-0.965,3.238-1.877,4.679c-0.798,1.261-1.95,2.144-3.237,2.856
				c-2.083,1.153-4.346,1.76-6.679,2.138c-0.131,0.021-0.269,0.003-0.409-0.023c1.932-0.588,3.795-1.328,5.571-2.283
				c1.081-0.582,2.133-1.219,2.98-2.111c1.073-1.13,1.901-2.434,2.447-3.907c0.577-1.557,0.811-3.199,1.207-4.801
				C200.694,41.927,200.968,40.682,201.278,39.344z"/>
			<path fill-rule="evenodd" clip-rule="evenodd" fill="#5DB347" d="M200.574,31.609c-0.031-0.032-0.063-0.063-0.094-0.095
				c0.505-0.276,1.018-0.531,1.588-0.647l0,0C201.621,31.217,201.054,31.326,200.574,31.609z"/>
			<path fill-rule="evenodd" clip-rule="evenodd" fill="#5DB347" d="M202.067,30.867c0.103-0.111,0.213-0.199,0.396-0.155
				C202.355,30.859,202.213,30.867,202.067,30.867L202.067,30.867z"/>
			<path fill-rule="evenodd" clip-rule="evenodd" fill="#3CAA49" d="M209.614,70.184c-1.978,1.802-4.045,3.495-6.212,5.064
				c-1.696,1.228-3.449,2.362-5.339,3.276c-1.473,0.713-2.999,1.195-4.642,1.371c-1.671,0.178-3.343,0.232-5.009,0.143
				c-2.37-0.128-4.704-0.508-6.838-1.654c-0.548-0.295-1.042-0.66-1.427-1.173c0.626,0.247,1.217,0.566,1.851,0.79
				c1.317,0.464,2.662,0.791,4.051,0.946c0.953,0.106,1.908,0.21,2.866,0.173c2.229-0.087,4.427-0.392,6.569-1.038
				c3.169-0.956,6.072-2.464,8.851-4.242c1.801-1.152,3.503-2.437,5.186-3.749C209.608,70.064,209.639,70.096,209.614,70.184z"/>
			<path fill-rule="evenodd" clip-rule="evenodd" fill="#3CAA49" d="M201.139,65.437c-0.807-0.172-1.613-0.343-2.419-0.517
				c-2.203-0.475-4.388-1.063-6.611-1.399c-3.559-0.538-6.892,0.119-9.86,2.295c-1.729,1.268-3.339,2.662-4.835,4.194
				c-0.307,0.314-0.529,0.711-0.984,0.899c0.449-0.637,0.881-1.287,1.352-1.907c0.864-1.137,1.819-2.197,2.875-3.158
				c1.75-1.592,3.661-2.913,6.05-3.348c1.227-0.224,2.46-0.156,3.699-0.062c1.686,0.128,3.335,0.439,4.965,0.862
				c1.845,0.479,3.646,1.092,5.394,1.858c0.138,0.061,0.267,0.139,0.401,0.209C201.155,65.388,201.146,65.413,201.139,65.437z"/>
			<path fill-rule="evenodd" clip-rule="evenodd" fill="#55B047" d="M209.614,70.184c-0.031-0.031-0.063-0.063-0.094-0.094
				c0.459-0.402,0.919-0.803,1.378-1.205C210.581,69.432,210.079,69.79,209.614,70.184z"/>
			<path fill-rule="evenodd" clip-rule="evenodd" fill="#6EB745" d="M211.371,68.547c0.111-0.199,0.264-0.37,0.543-0.536
				C211.692,68.229,211.531,68.388,211.371,68.547z"/>
			<path fill-rule="evenodd" clip-rule="evenodd" fill="#234026" d="M161.592,75.381c-0.433-0.099-0.44,0.066-0.429,0.391
				c0.035,0.976,0.055,1.953,0.073,2.929c0.034,1.83,0.081,3.659,0.09,5.488c0.015,2.933,0.004,5.866,0.004,8.917
				c-0.12-0.213-0.192-0.342-0.264-0.471c-0.52-0.932-1.175-1.755-2.026-2.401c-2.106-1.599-4.513-1.896-7.021-1.44
				c-3.743,0.681-6.322,2.918-7.784,6.361c-1.691,3.984-1.659,8.07-0.104,12.083c1.482,3.824,4.373,5.851,8.477,6.096
				c2.851,0.17,5.354-0.628,7.369-2.736c0.553-0.579,0.981-1.25,1.385-1.86c0,1.191,0.028,2.41-0.015,3.627
				c-0.016,0.46,0.129,0.535,0.531,0.483c1.035-0.135,2.074-0.129,3.108,0.003c0.389,0.05,0.484-0.058,0.476-0.451
				c-0.058-3.009-0.113-6.018-0.126-9.027c-0.025-5.709,0.034-11.417,0.176-17.125c0.077-3.099,0.117-6.199,0.303-9.295
				c0.033-0.538,0.065-1.075,0.1-1.659C164.45,75.63,163.017,75.708,161.592,75.381z M161.498,101.885
				c-0.127,1.815-0.461,3.59-1.251,5.253c-0.744,1.565-1.767,2.891-3.35,3.671c-2.289,1.128-6.167,0.743-7.854-2.679
				c-1.023-2.073-1.348-4.263-1.322-6.307c-0.016-2.494,0.243-4.715,1.16-6.813c0.698-1.594,1.719-2.913,3.389-3.589
				c3.489-1.413,7.247,0.371,8.527,4.04C161.523,97.547,161.65,99.706,161.498,101.885z"/>
			<path fill-rule="evenodd" clip-rule="evenodd" fill="#234027" d="M191.822,96.898c-0.563-3.705-2.552-6.277-6.068-7.613
				c-1.928-0.733-3.939-0.777-5.962-0.561c-3.939,0.421-6.765,2.417-8.365,6.052c-1.167,2.652-1.475,5.458-1.215,8.322
				c0.266,2.927,1.458,5.426,3.68,7.38c2.362,2.078,5.194,2.853,8.279,2.876c3.037,0.025,5.74-0.955,8.2-2.689
				c0.22-0.155,0.323-0.327,0.346-0.603c0.051-0.602,0.148-1.199,0.229-1.798c0.031-0.23,0.079-0.436-0.2-0.591
				c-0.313-0.174-0.384,0.1-0.513,0.229c-1.896,1.909-4.16,3.077-6.862,3.194c-2.806,0.121-5.175-0.875-6.875-3.177
				c-1.483-2.009-1.779-4.344-1.704-6.76c0.007-0.218,0.135-0.236,0.309-0.241c1.767-0.047,3.533-0.149,5.299-0.141
				c3.676,0.017,7.352,0.087,11.027,0.151c0.329,0.005,0.462-0.055,0.479-0.413C191.965,99.306,192.005,98.102,191.822,96.898z
				 M187.151,98.759c-1.845,0.043-3.69,0.081-5.535,0.119c-0.14,0.003-0.279,0-0.419,0c-1.939,0.037-3.875-0.107-5.813-0.111
				c-0.388-0.001-0.438-0.128-0.384-0.495c0.267-1.828,0.741-3.579,1.819-5.111c1.734-2.464,4.211-3.202,6.938-2.298
				c1.614,0.535,2.518,1.834,3.124,3.36c0.535,1.346,0.621,2.77,0.725,4.191C187.634,98.793,187.373,98.754,187.151,98.759z"/>
			<path fill-rule="evenodd" clip-rule="evenodd" fill="#234026" d="M123.145,110.847c-0.147-0.064-0.211,0.031-0.294,0.06
				c-1.249,0.435-2.092,0.07-2.472-1.03c-0.179-0.517-0.198-1.062-0.207-1.606c-0.063-4.065,0.22-8.124,0.192-12.189
				c-0.024-3.557-2.185-6.379-5.649-7.158c-3.88-0.873-7.358,0.094-10.477,2.497c-0.121,0.093-0.179,0.188-0.177,0.345
				c0.007,0.776,0.003,1.552,0.004,2.328c0,0.121-0.026,0.278,0.157,0.277c0.306-0.002,0.639,0.116,0.824-0.31
				c0.167-0.381,0.452-0.702,0.752-0.998c1.592-1.571,3.539-2.152,5.728-2.022c1.795,0.106,3.164,0.928,3.991,2.542
				c0.637,1.244,0.778,2.594,0.727,3.976c-0.029,0.795-0.462,1.242-1.166,1.501c-0.977,0.36-1.996,0.548-3.011,0.759
				c-1.575,0.327-3.189,0.463-4.736,0.926c-3.293,0.986-5.133,2.814-5.387,5.956c-0.19,2.348,1.026,4.883,3.175,5.85
				c3.037,1.366,6.029,1.067,8.876-0.644c0.812-0.488,1.51-1.13,2.235-1.783c0.051,0.147,0.091,0.26,0.128,0.374
				c0.387,1.185,1.158,1.978,2.398,2.21c1.399,0.261,2.774,0.085,4.115-0.377c0.149-0.051,0.284-0.101,0.277-0.312
				C123.135,111.624,123.145,111.226,123.145,110.847z M116.075,107.532c-0.003,0.124-0.007,0.239-0.087,0.35
				c-1.446,2.004-3.268,3.331-5.869,3.208c-1.87-0.088-3.489-1.611-3.738-3.467c-0.206-1.535-0.058-2.976,1.12-4.13
				c0.902-0.884,2.042-1.31,3.23-1.642c1.597-0.445,3.249-0.623,4.854-1.019c0.209-0.051,0.416-0.108,0.654-0.171
				C116.184,102.981,116.128,105.256,116.075,107.532z"/>
			<path fill-rule="evenodd" clip-rule="evenodd" fill="#3CAA49" d="M220.416,46.516c-3.576,0.221-7.069,0.82-10.276,2.505
				c-2.611,1.372-4.705,3.302-5.958,6.037c-0.102,0.222-0.189,0.451-0.316,0.755c-0.092-0.661,0.113-1.187,0.332-1.695
				c0.456-1.063,1.135-1.988,1.916-2.833c0.821-0.887,1.704-1.71,2.671-2.441c1.363-1.031,2.959-1.445,4.592-1.762
				c1.592-0.31,3.198-0.49,4.82-0.582c0.618-0.035,1.234-0.056,1.853-0.075C220.187,46.392,220.348,46.269,220.416,46.516z"/>
			<path fill-rule="evenodd" clip-rule="evenodd" fill="#3CAA49" d="M204.88,60.161c0.487-0.026,0.984,0.032,1.47,0.027
				c2.581-0.027,5.154-0.129,7.276-1.928c0.79-0.669,1.422-1.46,1.995-2.311c0.854-1.269,1.718-2.53,2.599-3.827
				c0.048,0.194-0.029,0.32-0.084,0.437c-1.075,2.317-2.341,4.5-4.206,6.299c-1.121,1.081-2.462,1.539-3.955,1.734
				C208.246,60.819,206.565,60.54,204.88,60.161z"/>
			<path fill-rule="evenodd" clip-rule="evenodd" fill="#77BA43" d="M220.416,46.516c-0.097-0.135-0.243-0.07-0.368-0.092
				c0.739-0.212,1.487-0.016,2.231-0.059C221.655,46.384,221.045,46.572,220.416,46.516z"/>
			<path fill-rule="evenodd" clip-rule="evenodd" fill="#234027" d="M137.889,75.11c2.868-0.137,5.736-0.094,8.604,0
				c1.591,0.063,1.598,0.063,1.559-1.523c-0.063-2.606-1.111-4.601-3.581-5.694c-1.183-0.524-2.44-0.583-3.698-0.487
				c-2.519,0.193-4.392,1.376-5.459,3.717c-0.753,1.651-0.932,3.401-0.784,5.18c0.19,2.288,1.219,4.154,3.219,5.306
				c2.788,1.605,5.636,1.478,8.465-0.006c0.743-0.389,1.254-0.865,1.171-1.773c-0.011-0.119,0.027-0.247,0.059-0.366
				c0.06-0.223-0.049-0.331-0.229-0.442c-0.216-0.134-0.272,0.045-0.367,0.146c-0.683,0.723-1.499,1.243-2.424,1.597
				c-2.451,0.938-5.026,0.078-6.194-2.076c-0.564-1.04-0.702-2.167-0.67-3.331C137.567,75.085,137.715,75.118,137.889,75.11z
				 M137.687,73.292c0.235-1.397,0.669-2.685,1.734-3.71c1.21-1.164,4.03-1.321,5.104,0.895c0.43,0.886,0.575,1.819,0.629,2.783
				c0.014,0.244-0.066,0.301-0.308,0.314c-1.162,0.064-2.323,0.066-3.485,0.066c-1.131,0-2.262,0.002-3.393-0.068
				C137.762,73.559,137.646,73.537,137.687,73.292z"/>
		</g>
		<g>
			<path fill="#FFFFFF" stroke="#FFFFFF" stroke-width="2" stroke-miterlimit="10" d="M306.403,96.529
				c0-4.634,0.534-8.271,1.606-10.912c1.071-2.641,2.645-4.513,4.718-5.614s4.7-1.652,7.88-1.652c0.415,0,0.846,0.008,1.296,0.023
				c0.448,0.018,0.915,0.041,1.399,0.073c0.483,0.033,0.985,0.073,1.504,0.122c0.519,0.048,1.053,0.121,1.607,0.219l-0.415,0.874
				c-0.622-0.097-1.244-0.177-1.866-0.242c-0.622-0.064-1.211-0.105-1.763-0.122c-0.554-0.016-1.106-0.024-1.659-0.024
				c-1.866,0-3.561,0.252-5.08,0.754c-1.521,0.503-2.799,1.378-3.836,2.625s-1.851,2.997-2.438,5.249
				c-0.588,2.253-0.881,5.128-0.881,8.628c0,3.176,0.275,5.801,0.83,7.874c0.552,2.074,1.363,3.694,2.436,4.861
				c1.071,1.166,2.334,1.992,3.785,2.479s3.041,0.729,4.77,0.729c0.689,0,1.744-0.04,3.162-0.122
				c1.416-0.08,2.471-0.186,3.162-0.315l0.414,0.924c-0.484,0.064-1.02,0.121-1.606,0.17c-0.588,0.049-1.21,0.089-1.866,0.121
				c-0.658,0.032-1.279,0.057-1.866,0.073c-0.589,0.016-1.089,0.024-1.503,0.024c-2.074,0-3.94-0.243-5.6-0.729
				c-1.658-0.486-3.11-1.337-4.354-2.552s-2.195-2.916-2.851-5.104C306.73,102.775,306.403,99.965,306.403,96.529z"/>
			<path fill="#FFFFFF" stroke="#FFFFFF" stroke-width="2" stroke-miterlimit="10" d="M330.352,107.709
				c0-1.328,0.467-2.446,1.4-3.354s2.211-1.678,3.836-2.31c1.623-0.632,3.508-1.158,5.65-1.579s4.423-0.794,6.844-1.118v-6.951
				c0-1.522-0.555-2.705-1.659-3.548c-1.106-0.843-2.938-1.264-5.495-1.264c-0.622,0-1.314,0.017-2.074,0.048
				c-0.761,0.033-1.555,0.098-2.385,0.194c-0.829,0.098-1.729,0.228-2.695,0.39l-0.726-0.826c1.589-0.292,3.022-0.494,4.303-0.608
				c1.278-0.113,2.471-0.17,3.577-0.17c2.211,0,3.992,0.228,5.34,0.681c1.348,0.454,2.332,1.11,2.955,1.969
				c0.621,0.858,0.933,1.904,0.933,3.135v18.471c0,0.584,0.172,0.989,0.519,1.216c0.345,0.227,0.829,0.34,1.451,0.34
				c0.415,0,0.863-0.024,1.348-0.073c0.483-0.048,1.002-0.137,1.556-0.267l0.726,0.826c-0.691,0.161-1.332,0.274-1.918,0.34
				c-0.588,0.064-1.158,0.098-1.711,0.098c-1.244,0-2.229-0.211-2.955-0.632c-0.726-0.421-1.088-0.956-1.088-1.604
				c-0.762,0.422-1.607,0.802-2.541,1.143c-0.933,0.34-1.918,0.607-2.955,0.802c-1.036,0.194-2.143,0.292-3.317,0.292
				c-1.384,0-2.628-0.122-3.732-0.365c-1.106-0.242-2.04-0.607-2.8-1.093c-0.761-0.486-1.348-1.077-1.762-1.774
				C330.56,109.419,330.352,108.616,330.352,107.709z M332.426,107.466c0,1.588,0.639,2.812,1.918,3.67
				c1.278,0.859,2.989,1.288,5.133,1.288c1.312,0,2.504-0.146,3.576-0.438c1.071-0.292,2.039-0.647,2.903-1.069
				c0.864-0.421,1.571-0.826,2.126-1.215v-9.43c-1.867,0.227-3.732,0.519-5.6,0.875c-1.865,0.356-3.561,0.81-5.08,1.36
				c-1.521,0.552-2.731,1.232-3.629,2.042C332.875,105.36,332.426,106.332,332.426,107.466z"/>
			<path fill="#FFFFFF" stroke="#FFFFFF" stroke-width="2" stroke-miterlimit="10" d="M362.492,87.1v1.604
				c0.689-0.42,1.485-0.785,2.385-1.093c0.897-0.308,1.883-0.551,2.955-0.729c1.07-0.178,2.159-0.268,3.266-0.268
				c0.76,0,1.504,0.024,2.229,0.073c0.727,0.049,1.435,0.138,2.126,0.268l-0.519,0.826c-0.691-0.098-1.348-0.17-1.97-0.219
				s-1.244-0.073-1.866-0.073c-1.521,0-2.973,0.194-4.354,0.583c-1.384,0.39-2.8,1.038-4.251,1.944v22.846h-2.074V87.1H362.492z"/>
			<path fill="#FFFFFF" stroke="#FFFFFF" stroke-width="2" stroke-miterlimit="10" d="M391.002,113.348
				c-2.557,0-4.493-0.26-5.806-0.778c-1.313-0.518-2.177-1.215-2.592-2.09s-0.622-1.83-0.622-2.868V88.023h-5.495v-0.632
				l5.495-0.292l0.518-6.563h1.557V87.1h11.094v0.924h-11.094v19.588c0,1.686,0.518,2.909,1.555,3.67
				c1.037,0.762,2.834,1.143,5.391,1.143c0.691,0,1.383-0.016,2.074-0.049c0.69-0.031,1.416-0.113,2.178-0.243l0.414,0.875
				c-0.898,0.13-1.729,0.219-2.488,0.268C392.418,113.323,391.693,113.348,391.002,113.348z"/>
			<path fill="#FFFFFF" stroke="#FFFFFF" stroke-width="2" stroke-miterlimit="10" d="M408.939,113.348
				c-2.074,0-3.82-0.219-5.236-0.656c-1.418-0.438-2.559-1.143-3.422-2.114c-0.865-0.973-1.486-2.269-1.865-3.889
				c-0.381-1.62-0.57-3.613-0.57-5.979c0-2.852,0.259-5.193,0.777-7.024c0.518-1.83,1.26-3.264,2.229-4.302
				c0.967-1.036,2.126-1.757,3.474-2.163c1.349-0.404,2.852-0.607,4.511-0.607c2.902,0,5.096,0.802,6.584,2.406
				c1.484,1.604,2.229,4.286,2.229,8.045c0,0.13-0.018,0.332-0.052,0.607c-0.036,0.275-0.052,0.445-0.052,0.51
				c-0.899,0.065-1.918,0.139-3.059,0.219c-1.141,0.082-2.42,0.163-3.836,0.243c-1.418,0.081-3.025,0.146-4.822,0.194
				c-1.798,0.049-3.768,0.073-5.909,0.073c0,0.162,0,0.34,0,0.534c0,0.195,0,0.373,0,0.535c0,3.273,0.293,5.816,0.882,7.631
				c0.586,1.815,1.555,3.071,2.902,3.768c1.348,0.697,3.127,1.045,5.34,1.045c0.689,0,1.382-0.024,2.073-0.073
				c0.69-0.048,1.452-0.129,2.281-0.242s1.692-0.251,2.592-0.414l0.519,0.875c-0.898,0.163-1.799,0.308-2.695,0.438
				c-0.899,0.13-1.746,0.219-2.541,0.268S409.699,113.348,408.939,113.348z M399.919,98.036c1.52,0,3.093-0.016,4.718-0.049
				c1.623-0.031,3.162-0.08,4.613-0.146c1.451-0.064,2.73-0.138,3.836-0.219s1.935-0.153,2.488-0.219
				c0-2.462-0.259-4.415-0.777-5.857c-0.518-1.441-1.262-2.479-2.229-3.11c-0.969-0.632-2.213-0.948-3.732-0.948
				c-1.177,0-2.266,0.146-3.267,0.438c-1.003,0.292-1.901,0.818-2.696,1.58s-1.435,1.831-1.918,3.208
				C400.471,94.092,400.126,95.865,399.919,98.036z"/>
			<path fill="#FFFFFF" stroke="#FFFFFF" stroke-width="2" stroke-miterlimit="10" d="M323.822,157.861l-0.416-0.486
				c-0.898,0.324-1.936,0.566-3.109,0.729c-1.177,0.162-2.352,0.243-3.525,0.243c-3.388,0-5.945-1.086-7.673-3.257
				c-1.729-2.171-2.592-5.363-2.592-9.576c0-3.402,0.379-6.115,1.141-8.142c0.76-2.024,2.021-3.491,3.784-4.398
				s4.096-1.361,6.998-1.361c0.76,0,1.538,0.024,2.334,0.073c0.793,0.049,1.674,0.154,2.643,0.315v-10.11h2.074v35.97H323.822z
				 M323.406,156.403v-23.575c-1.105-0.161-1.969-0.267-2.592-0.315c-0.621-0.049-1.244-0.073-1.865-0.073
				c-2.559,0-4.598,0.406-6.117,1.216c-1.521,0.81-2.61,2.171-3.267,4.083c-0.657,1.912-0.985,4.504-0.985,7.776
				c0,2.594,0.312,4.78,0.934,6.563s1.555,3.128,2.799,4.034c1.244,0.908,2.73,1.361,4.459,1.361c0.829,0,1.589-0.032,2.281-0.098
				c0.689-0.064,1.381-0.178,2.073-0.34C321.816,156.873,322.578,156.663,323.406,156.403z"/>
			<path fill="#FFFFFF" stroke="#FFFFFF" stroke-width="2" stroke-miterlimit="10" d="M344.143,158.348
				c-2.074,0-3.82-0.219-5.236-0.656c-1.417-0.438-2.558-1.143-3.421-2.114c-0.865-0.973-1.487-2.269-1.866-3.889
				c-0.381-1.62-0.57-3.613-0.57-5.979c0-2.852,0.26-5.193,0.777-7.024c0.519-1.83,1.261-3.264,2.229-4.302
				c0.967-1.036,2.126-1.757,3.474-2.163c1.348-0.404,2.852-0.607,4.51-0.607c2.902,0,5.097,0.802,6.584,2.406
				c1.485,1.604,2.229,4.286,2.229,8.045c0,0.13-0.018,0.332-0.051,0.607c-0.036,0.275-0.053,0.445-0.053,0.51
				c-0.898,0.065-1.918,0.139-3.059,0.219c-1.141,0.082-2.42,0.163-3.836,0.243c-1.418,0.081-3.024,0.146-4.821,0.194
				c-1.798,0.049-3.769,0.073-5.909,0.073c0,0.162,0,0.34,0,0.534c0,0.195,0,0.373,0,0.535c0,3.273,0.293,5.816,0.881,7.631
				c0.586,1.815,1.555,3.071,2.902,3.768c1.349,0.697,3.127,1.045,5.34,1.045c0.69,0,1.383-0.024,2.074-0.073
				c0.689-0.048,1.451-0.129,2.281-0.242c0.829-0.113,1.692-0.251,2.592-0.414l0.518,0.875c-0.898,0.163-1.798,0.308-2.695,0.438
				c-0.898,0.13-1.746,0.219-2.54,0.268C345.68,158.323,344.902,158.348,344.143,158.348z M335.123,143.036
				c1.52,0,3.092-0.016,4.717-0.049c1.623-0.031,3.162-0.08,4.613-0.146c1.452-0.064,2.73-0.138,3.837-0.219
				c1.104-0.081,1.935-0.153,2.488-0.219c0-2.462-0.259-4.415-0.777-5.857c-0.519-1.441-1.263-2.479-2.229-3.11
				c-0.969-0.632-2.213-0.948-3.732-0.948c-1.176,0-2.265,0.146-3.266,0.438c-1.003,0.292-1.902,0.818-2.696,1.58
				c-0.796,0.762-1.435,1.831-1.918,3.208C335.675,139.092,335.33,140.865,335.123,143.036z"/>
			<path fill="#FFFFFF" stroke="#FFFFFF" stroke-width="2" stroke-miterlimit="10" d="M307.959,202.861v-34.025h18.144v0.973
				h-16.071v15.116h12.547v0.924h-12.547v17.013H307.959z"/>
			<path fill="#FFFFFF" stroke="#FFFFFF" stroke-width="2" stroke-miterlimit="10" d="M332.114,169.954
				c-0.691,0-1.106-0.04-1.244-0.121c-0.14-0.081-0.207-0.316-0.207-0.705s0.067-0.624,0.207-0.705
				c0.138-0.08,0.553-0.121,1.244-0.121c0.76,0,1.192,0.041,1.296,0.121c0.104,0.081,0.156,0.316,0.156,0.705
				s-0.053,0.624-0.156,0.705S332.874,169.954,332.114,169.954z M331.078,202.861V177.1h2.073v25.762H331.078z"/>
			<path fill="#FFFFFF" stroke="#FFFFFF" stroke-width="2" stroke-miterlimit="10" d="M358.033,202.861l-0.414-0.486
				c-0.899,0.324-1.936,0.566-3.111,0.729c-1.176,0.162-2.35,0.243-3.524,0.243c-3.388,0-5.946-1.086-7.673-3.257
				c-1.729-2.171-2.592-5.363-2.592-9.576c0-3.402,0.379-6.115,1.141-8.142c0.76-2.024,2.021-3.491,3.784-4.398
				s4.095-1.361,6.999-1.361c0.76,0,1.537,0.024,2.332,0.073c0.794,0.049,1.676,0.154,2.645,0.315v-10.11h2.073v35.97H358.033z
				 M357.619,201.403v-23.575c-1.107-0.161-1.971-0.267-2.592-0.315c-0.623-0.049-1.244-0.073-1.867-0.073
				c-2.558,0-4.598,0.406-6.117,1.216c-1.521,0.81-2.609,2.171-3.266,4.083c-0.658,1.912-0.984,4.504-0.984,7.776
				c0,2.594,0.311,4.78,0.933,6.563s1.556,3.128,2.8,4.034c1.244,0.908,2.729,1.361,4.458,1.361c0.829,0,1.589-0.032,2.28-0.098
				c0.69-0.064,1.383-0.178,2.074-0.34C356.027,201.873,356.789,201.663,357.619,201.403z"/>
			<path fill="#FFFFFF" stroke="#FFFFFF" stroke-width="2" stroke-miterlimit="10" d="M378.355,203.348
				c-2.074,0-3.82-0.219-5.236-0.656c-1.418-0.438-2.559-1.143-3.422-2.114c-0.865-0.973-1.486-2.269-1.865-3.889
				c-0.381-1.62-0.57-3.613-0.57-5.979c0-2.852,0.259-5.193,0.777-7.024c0.518-1.83,1.26-3.264,2.229-4.302
				c0.967-1.036,2.126-1.757,3.474-2.163c1.349-0.404,2.852-0.607,4.511-0.607c2.902,0,5.096,0.802,6.584,2.406
				c1.484,1.604,2.229,4.286,2.229,8.045c0,0.13-0.018,0.332-0.052,0.607c-0.036,0.275-0.052,0.445-0.052,0.51
				c-0.899,0.065-1.918,0.139-3.059,0.219c-1.141,0.082-2.42,0.163-3.836,0.243c-1.418,0.081-3.025,0.146-4.822,0.194
				c-1.798,0.049-3.768,0.073-5.909,0.073c0,0.162,0,0.34,0,0.534c0,0.195,0,0.373,0,0.535c0,3.273,0.293,5.816,0.882,7.631
				c0.586,1.815,1.555,3.071,2.902,3.768c1.348,0.697,3.127,1.045,5.34,1.045c0.689,0,1.382-0.024,2.073-0.073
				c0.69-0.048,1.452-0.129,2.281-0.242s1.692-0.251,2.592-0.414l0.519,0.875c-0.898,0.163-1.799,0.308-2.695,0.438
				c-0.899,0.13-1.746,0.219-2.541,0.268S379.115,203.348,378.355,203.348z M369.335,188.036c1.52,0,3.093-0.016,4.718-0.049
				c1.623-0.031,3.162-0.08,4.613-0.146c1.451-0.064,2.73-0.138,3.836-0.219s1.935-0.153,2.488-0.219
				c0-2.462-0.259-4.415-0.777-5.857c-0.518-1.441-1.262-2.479-2.229-3.11c-0.969-0.632-2.213-0.948-3.732-0.948
				c-1.177,0-2.266,0.146-3.267,0.438c-1.003,0.292-1.901,0.818-2.696,1.58s-1.435,1.831-1.918,3.208
				C369.887,184.092,369.542,185.865,369.335,188.036z M376.593,173.892l8.294-9.43h2.281l-8.605,9.43H376.593z"/>
			<path fill="#FFFFFF" stroke="#FFFFFF" stroke-width="2" stroke-miterlimit="10" d="M396.084,166.892v31.838
				c0,1.005,0.139,1.774,0.415,2.309c0.275,0.535,0.674,0.893,1.192,1.07s1.156,0.267,1.918,0.267c0.346,0,0.742-0.016,1.192-0.049
				c0.448-0.031,1.054-0.112,1.814-0.242l0.415,0.923c-0.622,0.13-1.229,0.219-1.814,0.268c-0.588,0.049-1.125,0.073-1.607,0.073
				c-1.244,0-2.281-0.122-3.11-0.365c-0.829-0.242-1.452-0.696-1.866-1.36s-0.622-1.629-0.622-2.893v-31.838H396.084z"/>
			<path fill="#FFFFFF" stroke="#FFFFFF" stroke-width="2" stroke-miterlimit="10" d="M408.836,169.954
				c-0.691,0-1.105-0.04-1.244-0.121s-0.207-0.316-0.207-0.705s0.068-0.624,0.207-0.705c0.139-0.08,0.553-0.121,1.244-0.121
				c0.76,0,1.193,0.041,1.297,0.121c0.104,0.081,0.155,0.316,0.155,0.705s-0.052,0.624-0.155,0.705S409.596,169.954,408.836,169.954
				z M407.8,202.861V177.1h2.073v25.762H407.8z"/>
			<path fill="#FFFFFF" stroke="#FFFFFF" stroke-width="2" stroke-miterlimit="10" d="M429.779,203.348
				c-2.559,0-4.494-0.26-5.807-0.778c-1.313-0.518-2.178-1.215-2.592-2.09c-0.415-0.875-0.622-1.83-0.622-2.868v-19.588h-5.495
				v-0.632l5.495-0.292l0.519-6.563h1.555v6.563h11.094v0.924h-11.094v19.588c0,1.686,0.519,2.909,1.556,3.67
				c1.036,0.762,2.833,1.143,5.392,1.143c0.689,0,1.381-0.016,2.073-0.049c0.69-0.031,1.416-0.113,2.177-0.243l0.416,0.875
				c-0.9,0.13-1.729,0.219-2.488,0.268C431.195,203.323,430.469,203.348,429.779,203.348z"/>
			<path fill="#FFFFFF" stroke="#FFFFFF" stroke-width="2" stroke-miterlimit="10" d="M447.715,203.348
				c-2.073,0-3.819-0.219-5.235-0.656c-1.417-0.438-2.558-1.143-3.421-2.114c-0.865-0.973-1.488-2.269-1.867-3.889
				c-0.381-1.62-0.57-3.613-0.57-5.979c0-2.852,0.26-5.193,0.777-7.024c0.52-1.83,1.262-3.264,2.23-4.302
				c0.967-1.036,2.125-1.757,3.473-2.163c1.348-0.404,2.852-0.607,4.51-0.607c2.903,0,5.098,0.802,6.584,2.406
				c1.486,1.604,2.229,4.286,2.229,8.045c0,0.13-0.019,0.332-0.052,0.607c-0.035,0.275-0.052,0.445-0.052,0.51
				c-0.899,0.065-1.919,0.139-3.06,0.219c-1.14,0.082-2.42,0.163-3.836,0.243c-1.417,0.081-3.023,0.146-4.82,0.194
				c-1.799,0.049-3.769,0.073-5.91,0.073c0,0.162,0,0.34,0,0.534c0,0.195,0,0.373,0,0.535c0,3.273,0.293,5.816,0.881,7.631
				c0.587,1.815,1.556,3.071,2.903,3.768c1.349,0.697,3.126,1.045,5.34,1.045c0.69,0,1.382-0.024,2.073-0.073
				c0.69-0.048,1.451-0.129,2.281-0.242s1.693-0.251,2.592-0.414l0.519,0.875c-0.899,0.163-1.798,0.308-2.696,0.438
				s-1.746,0.219-2.539,0.268C449.253,203.323,448.475,203.348,447.715,203.348z M438.695,188.036c1.52,0,3.092-0.016,4.717-0.049
				c1.624-0.031,3.163-0.08,4.614-0.146c1.452-0.064,2.729-0.138,3.837-0.219c1.104-0.081,1.934-0.153,2.488-0.219
				c0-2.462-0.26-4.415-0.777-5.857c-0.52-1.441-1.263-2.479-2.23-3.11c-0.969-0.632-2.213-0.948-3.732-0.948
				c-1.176,0-2.264,0.146-3.266,0.438s-1.902,0.818-2.695,1.58c-0.796,0.762-1.436,1.831-1.918,3.208
				C439.248,184.092,438.902,185.865,438.695,188.036z M445.953,173.892l8.295-9.43h2.28l-8.605,9.43H445.953z"/>
		</g>
		<path fill-rule="evenodd" clip-rule="evenodd" fill="#94C13E" d="M137.565,157.929c-8.34-0.775-16.537-2.509-24.755-4.061
			c-17.281-3.263-34.561-4.459-51.934-0.601c-14.072,3.125-25.475,10.347-34.017,21.937c-0.755,1.025-1.471,2.064-2.166,3.111V204.2
			c1.273-1.292,2.571-2.564,3.874-3.834c18.763-18.274,41.458-25.866,67.22-23.636c14.285,1.238,28.537,1.829,42.842,1.867
			c0.389,0.704-0.475,0.452-0.591,0.775c-2.052,0.737-4.146,1.324-6.306,1.63c-6.291,0.891-12.622,0.819-18.946,0.695
			c-15.573-0.308-31.048,0.221-46.227,4.31c-9.002,2.424-17.376,6.039-24.652,11.931c-6.771,5.484-12.428,11.712-17.214,18.518
			v18.47c2.877,1.807,6.064,2.943,9.242,4.08c17.084,6.108,34.355,6.855,51.758,1.529c14.15-4.329,26.551-11.861,37.764-21.384
			c20.78-17.644,36.416-39.323,49.224-63.191c0.629-1.176,1.181-2.395,1.893-3.846C160.811,157.859,152.019,159.269,137.565,157.929
			z"/>
		<path opacity="0.6" fill-rule="evenodd" clip-rule="evenodd" fill="#94C13E" d="M236.578,264.225h2.605
			c-0.615-0.997-1.09-2.079-1.507-3.192c-1.809-4.835-2.433-9.905-3.019-14.995c-2.231-19.438,3.649-36.32,16.736-50.529
			c7.257-7.877,14.116-16.031,20.675-24.47c0.594,0.092,0.05,0.487,0.188,0.703c-0.502,1.551-1.111,3.056-1.918,4.472
			c-2.346,4.126-5.281,7.835-8.243,11.516c-7.295,9.066-14.051,18.454-18.568,29.293c-2.68,6.429-4.369,13.029-4.209,20.021
			c0.221,9.694,2.536,18.683,6.292,27.182h7.439c0.039-0.016,0.061-0.033,0.103-0.048c2.45-0.872,4.625-2.271,6.797-3.662
			c11.415-7.308,19.746-17.175,24.547-29.894c3.905-10.342,5.117-21.112,4.611-32.09c-0.937-20.342-6.609-39.487-14.865-57.961
			c-0.408-0.909-0.876-1.792-1.408-2.875c-2.893,10.76-6.075,16.6-13.47,24.531c-4.269,4.575-9.037,8.629-13.708,12.777
			c-9.822,8.724-18.423,18.392-24.079,30.423c-4.581,9.746-5.521,19.783-2.573,30.127
			C222.215,246.807,228.544,256.071,236.578,264.225z"/>
		<path opacity="0.8" fill-rule="evenodd" clip-rule="evenodd" fill="#94C13E" d="M455.147,23.085
			c0.168,1.869-0.43,3.547-1.208,5.165c-1.716,3.563-4.189,6.594-6.695,9.614c-9.567,11.533-22.021,17.227-36.813,17.516
			c-8.201,0.161-16.346,0.687-24.487,1.53c-0.265-0.377,0.243-0.286,0.29-0.476c1.123-0.544,2.277-1.004,3.489-1.308
			c3.523-0.889,7.131-1.23,10.736-1.542c8.879-0.77,17.651-2.006,26.038-5.251c4.977-1.923,9.522-4.487,13.305-8.28
			c8.055-8.077,12.576-18,15.233-28.89h-4.211c-0.489,2.208-1.198,4.34-2.135,6.424c-0.311,0.693-0.608,0.74-1.211,0.438
			c-1.78-0.893-3.707-1.355-5.627-1.819c-10.089-2.442-19.962-1.822-29.539,2.262c-7.788,3.319-14.388,8.356-20.191,14.452
			c-10.755,11.295-18.338,24.577-24.182,38.931c-0.285,0.708-0.526,1.435-0.845,2.303c7.484-4.102,12.401-5.436,20.705-5.548
			c4.793-0.063,9.561,0.427,14.331,0.812c10.028,0.81,19.932,0.444,29.584-2.802c7.816-2.63,13.866-7.428,18.024-14.54
			c5.024-8.594,6.659-18.014,6.582-27.828C456.315,23.458,455.913,23.154,455.147,23.085z"/>
		<path opacity="0.1" fill-rule="evenodd" clip-rule="evenodd" fill="#94C13E" d="M481.837,252.081
			c-0.239-0.046-0.479-0.089-0.719-0.139c-7.601-1.583-14.549-4.863-21.491-8.208c-26.507-12.778-43.248-33.817-50.801-61.871
			c-4.187-15.556-9.044-30.828-14.505-45.944c0.594-0.681,0.66,0.328,1.045,0.327c1.568,1.882,2.993,3.867,4.146,6.03
			c3.359,6.298,5.719,13.008,8.02,19.732c5.665,16.558,12.174,32.69,22.327,47.142c6.021,8.571,13.058,16.021,22.076,21.436
			c9.546,5.73,19.552,9.571,29.901,11.987v-72.138c-0.58-0.821-1.163-1.641-1.774-2.452c-10.012-13.273-22.731-23.467-37.096-31.643
			c-26.617-15.151-55.517-23.319-85.639-27.661c-1.483-0.212-2.981-0.326-4.787-0.52c11.358,12.32,16.227,21.059,20.37,36.833
			c2.389,9.102,3.712,18.422,5.234,27.693c3.201,19.497,8.583,38.198,19.338,55.055c8.711,13.653,20.719,22.914,36.238,27.474
			c16.066,4.717,32.11,4.4,48.115,1.204V252.081z"/>
		<path opacity="0.5" fill-rule="evenodd" clip-rule="evenodd" fill="#94C13E" d="M80.807,226.516l0.688,2.267
			c0.705-0.799,1.521-1.498,2.378-2.156c3.726-2.85,7.969-4.732,12.24-6.586c16.309-7.079,32.542-6.426,48.354,1.196
			c8.767,4.228,17.669,8.036,26.74,11.509c0.077,0.539-0.41,0.172-0.563,0.349c-1.479-0.027-2.949-0.16-4.394-0.486
			c-4.208-0.949-8.208-2.521-12.191-4.124c-9.81-3.946-19.758-7.339-30.375-8.402c-6.298-0.631-12.482-0.354-18.52,1.633
			c-8.37,2.755-15.573,7.142-21.97,12.654l1.966,6.468c0.025,0.029,0.045,0.044,0.068,0.077c1.407,1.898,3.198,3.421,4.98,4.94
			c9.37,7.994,20.152,12.63,32.479,13.443c10.023,0.661,19.708-1.131,29.118-4.472c17.438-6.192,32.585-16.183,46.464-28.243
			c0.683-0.595,1.327-1.236,2.128-1.983c-10.119,0.327-16.039-0.896-24.888-5.229c-5.105-2.503-9.89-5.577-14.731-8.541
			c-10.181-6.234-20.859-11.157-32.814-12.895c-9.685-1.408-18.659,0.429-26.873,5.725
			C92.155,209.425,85.772,217.376,80.807,226.516z"/>
	</g>
</g>
</svg>
