<?xml version="1.0" encoding="utf-8"?>
<!-- Generator: Adobe Illustrator 16.0.0, SVG Export Plug-In . SVG Version: 6.00 Build 0)  -->
<!DOCTYPE svg PUBLIC "-//W3C//DTD SVG 1.1//EN" "http://www.w3.org/Graphics/SVG/1.1/DTD/svg11.dtd">
<svg version="1.1" id="Calque_1" xmlns="http://www.w3.org/2000/svg" xmlns:xlink="http://www.w3.org/1999/xlink" x="0px" y="0px"
	 width="442px" height="266px" viewBox="0 0 442 266" enable-background="new 0 0 442 266" xml:space="preserve">
<g>
	<path fill-rule="evenodd" clip-rule="evenodd" fill="#93C01F" d="M384.314,23.248c-5.302,6.411-7.534,13.945-8.208,22.092
		c-0.504,6.088-0.657,12.207-1.621,18.257c-1.026,6.44-2.896,12.608-6.032,18.339c-4.648,8.492-12.056,13.193-21.332,15.223
		c-6.24,1.365-12.525,1.338-18.82,0.434c-0.705-0.102-1.762,0.064-1.639-1.27c3.1,0.492,5.867-0.65,8.536-2
		c6.801-3.436,13.052-7.621,17.722-13.797c5.125-6.779,8.152-14.402,9.138-22.854c0.723-6.204,2.379-12.221,3.829-18.275
		c0.092-0.383,0.303-0.747,0.081-1.316c-1.38,1.805-2.135,3.801-2.776,5.837c-1.694,5.37-2.642,10.94-4.318,16.317
		c-2.011,6.441-4.627,12.607-8.637,18.074c-4.375,5.963-10.42,9.7-17.189,12.359c-5.648,2.219-11.522,3.496-17.565,4.033
		c-0.729,0.064-1.349-0.082-1.9-0.529c-1.182-0.956-2.193-2.073-3.303-3.496c0.88,0.086,1.52,0.174,2.161,0.207
		c3.341,0.174,6.615-0.217,9.84-1.109c0.724-0.199,0.94-0.443,0.767-1.236c-2.584-11.768-0.746-22.782,5.821-32.919
		c5.224-8.063,12.448-14.005,20.6-18.874c10.509-6.277,21.829-10.541,33.739-13.283c0.139-0.031,0.259-0.14,0.388-0.213
		C383.834,23.248,384.074,23.248,384.314,23.248z"/>
	<path fill-rule="evenodd" clip-rule="evenodd" fill="#213F26" d="M17.594,192.689c0.585-1.525,0.517-3.166,0.831-4.742
		c3.477-17.451,13.957-28.434,30.893-33.395c7.91-2.316,16.021-2.695,24.218-2.246c9.06,0.498,17.637,2.695,25.753,6.748
		c0.961,0.48,1.336,0.758,0.715,1.941c-1.266,2.41-1.903,5.064-2.342,7.76c-0.071,0.438,0.203,1.217-0.502,1.291
		c-0.777,0.082-1.581,0.252-2.286-0.563c-2.64-3.049-5.785-5.496-9.35-7.389c-6.822-3.625-14.093-4.979-21.77-4.307
		c-5.425,0.475-10.62,1.744-15.417,4.396c-7.596,4.203-12.475,10.688-15.014,18.824c-3.609,11.57-3.677,23.268,0.437,34.723
		c4.372,12.178,13.47,19.014,25.993,21.318c8.504,1.564,16.957,0.904,25.221-1.68c3.369-1.055,3.311-1.119,3.387-4.631
		c0.207-9.471,0.225-18.938-0.434-28.395c-0.033-0.465-0.168-0.953,0.072-1.441c4.033,0.768,8.069,1.072,11.891,0.039
		c0,2.441,0.043,4.908-0.007,7.373c-0.187,9.271-0.331,18.545,0.022,27.813c0.05,1.289-0.404,1.773-1.542,2.162
		c-6.572,2.25-13.364,3.436-20.224,4.314c-2.258,0.289-4.508,0.652-6.786,0.756c-0.083,0.002-0.16,0.135-0.239,0.207
		c-0.4,0-0.801,0-1.201,0c-0.56-0.197-1.119-0.197-1.68,0c-0.88,0-1.76,0-2.64,0c-0.687-0.256-1.401-0.064-2.099-0.123
		c-0.499,0.063-1.02-0.137-1.502,0.123c-0.24,0-0.479,0-0.72,0c-1.648-0.273-3.325-0.158-4.979-0.375
		c-9.037-1.174-17.475-3.861-24.585-9.826c-5.097-4.275-8.776-9.578-11.144-15.789c-1.676-4.396-2.807-8.908-2.861-13.645
		c-0.001-0.076-0.055-0.143-0.11-0.205c0-0.16,0-0.32,0-0.48c0.259-0.451,0.061-0.943,0.124-1.412
		c-0.058-0.408,0.127-0.84-0.124-1.227c0-1.682,0-3.361,0-5.041c0.196-0.48,0.196-0.959,0-1.439
		C17.594,193.648,17.594,193.168,17.594,192.689z"/>
	<path fill-rule="evenodd" clip-rule="evenodd" fill="#566C59" d="M63.405,243.363c0.734,0.027,1.496-0.256,2.188,0.205
		c-0.72,0-1.44,0-2.16,0c-0.069-0.037-0.097-0.08-0.081-0.127C63.368,243.389,63.386,243.363,63.405,243.363z"/>
	<path fill-rule="evenodd" clip-rule="evenodd" fill="#5C725F" d="M68.233,243.568c0.561-0.367,1.12-0.387,1.68,0
		C69.354,243.568,68.794,243.568,68.233,243.568z"/>
	<path fill-rule="evenodd" clip-rule="evenodd" fill="#596F5C" d="M17.594,194.129c0.368,0.48,0.37,0.959,0,1.439
		C17.594,195.088,17.594,194.609,17.594,194.129z"/>
	<path fill-rule="evenodd" clip-rule="evenodd" fill="#8F9E91" d="M17.78,201.848c-0.033,0.471,0.322,0.994-0.187,1.4
		c0-0.48,0-0.959,0-1.439C17.683,201.695,17.745,201.707,17.78,201.848z"/>
	<path fill-rule="evenodd" clip-rule="evenodd" fill="#8D9C8F" d="M63.405,243.363c0.014,0.068,0.022,0.137,0.028,0.205
		c-0.479,0-0.96,0-1.44,0C62.408,243.111,62.929,243.391,63.405,243.363z"/>
	<path fill-rule="evenodd" clip-rule="evenodd" fill="#596F5C" d="M17.78,201.848c-0.065,0.004-0.128-0.01-0.187-0.039
		c0-0.4,0-0.801,0-1.199C18.007,200.969,17.794,201.424,17.78,201.848z"/>
	<path fill-rule="evenodd" clip-rule="evenodd" fill="#93C01F" d="M298.743,165.215c-1.017-1.951-1.777-3.738-2.188-5.662
		c-0.123-0.574-0.011-1.107,0.283-1.613c6.314-10.871,14.309-20.104,25.567-26.128c5.16-2.761,10.725-3.993,16.535-4.427
		c9.798-0.729,19.357,0.769,28.881,2.785c3.789,0.803,7.588,1.578,11.472,1.777c1.631,0.084,3.254,0.016,4.861-0.605
		c-2.377-0.467-4.756-0.923-7.131-1.404c-6.457-1.311-12.783-3.111-19.137-4.852c-15.547-4.256-30.309-2.354-43.935,6.639
		c-3.844,2.535-7.668,5.084-10.685,8.637c-1.069,1.26-1.949,2.629-2.298,4.309c-0.764-0.281-1.114-0.713-0.868-1.551
		c3.006-10.204,7.658-19.463,15.529-26.842c6.668-6.25,14.606-9.41,23.744-9.66c10.905-0.297,21.193,2.359,31.245,6.294
		c5.646,2.21,11.246,4.564,17.132,6.114c6.97,1.834,13.953,2.094,20.97,0.292c0.105-0.026,0.227,0.007,0.452,0.017
		c-2.457,3.307-5.073,6.373-7.793,9.35c-8.454,9.254-17.755,17.512-28.505,24.037c-7.635,4.637-15.725,8.15-24.568,9.779
		c-12.73,2.344-24.613,0.08-35.726-6.467c-1.825-1.076-3.654-2.152-5.202-3.623c-0.526-0.502-0.856-0.564-1.409,0.066
		C302.744,156.17,300.378,160.34,298.743,165.215z"/>
	<path fill-rule="evenodd" clip-rule="evenodd" fill="#213F26" d="M370,190.07c2.78-3.84,6.045-6.996,10.387-8.754
		c6.521-2.643,13.164-2.633,19.583,0.178c6.43,2.816,9.518,8.287,10.485,15.008c0.83,5.766,0.28,11.568,0.111,17.354
		c-0.265,9.031-0.36,18.061,0.003,27.09c0.034,0.854-0.155,1.004-0.944,0.924c-3.147-0.322-6.304-0.348-9.45,0.004
		c-0.885,0.098-1.06-0.158-1.021-1.006c0.533-11.775,1.05-23.551,0.876-35.342c-0.044-2.924-0.283-5.822-1.089-8.65
		c-2.103-7.393-7.625-10.895-15.257-9.877c-7.242,0.967-11.571,5.025-13.284,13.457c-0.472,2.32-0.611,4.674-0.599,7.033
		c0.041,7.436,0.05,14.873,0.173,22.307c0.063,3.752,0.289,7.504,0.803,11.229c0.092,0.662,0.051,0.945-0.718,0.869
		c-3.548-0.354-7.101-0.354-10.648-0.004c-0.747,0.072-0.853-0.195-0.783-0.855c1.547-14.752,0.872-29.551,0.892-44.332
		c0.006-4.908-0.224-9.826-0.859-14.707c-0.122-0.939-0.159-1.438,1.145-1.141c3.068,0.701,6.188,0.691,9.27-0.01
		c0.877-0.199,1.18-0.117,1.099,0.896c-0.19,2.387-0.263,4.783-0.365,7.176C369.794,189.256,369.696,189.621,370,190.07z"/>
	<path fill-rule="evenodd" clip-rule="evenodd" fill="#93C01F" d="M362.713,95.272c2.493,1.329,4.875,2.09,7.377,2.495
		c1.756,0.283,1.684,0.292,2.042-1.457c1.487-7.27,4.798-13.514,10.526-18.354c5.612-4.742,12.229-7.297,19.334-8.728
		c9.747-1.962,19.528-1.796,29.414-0.386c-0.101,0.154-0.132,0.264-0.203,0.304c-5.135,2.918-8.551,7.36-11.105,12.556
		c-1.691,3.439-3.294,6.922-5.043,10.332c-2.599,5.068-6.005,9.543-10.438,13.148c-5.553,4.514-11.981,5.569-18.867,4.373
		c-4.487-0.779-8.677-2.427-12.612-4.719c-0.75-0.437-0.747-0.442-0.715-1.264c3.05,1.557,6.224,0.995,9.384,0.553
		c7.121-0.998,13.439-3.711,18.634-8.793c2.646-2.59,4.888-5.482,6.616-8.77c2.033-3.867,4.632-7.371,7.119-10.945
		c0.259-0.373,0.516-0.746,0.704-1.178c-1.246,0.541-2.099,1.535-2.931,2.521c-2.663,3.148-4.767,6.712-7.308,9.953
		c-3.276,4.18-6.911,8.004-11.474,10.785c-5.277,3.217-11.132,3.977-17.188,3.641c-3.201-0.178-6.329-0.775-9.454-1.479
		c-1.776-0.398-2.822-1.32-3.3-3.01C363.098,96.402,362.938,95.961,362.713,95.272z"/>
	<path fill-rule="evenodd" clip-rule="evenodd" fill="#213F26" d="M192.594,192.037c1.573-2.121,2.959-4.264,4.65-6.188
		c2.755-3.135,5.921-5.609,10.191-6.24c1.913-0.283,3.827-0.248,5.661,0.512c0.313,0.129,0.758,0.16,0.578,0.703
		c-1.041,3.143-0.714,6.406-0.816,9.627c-0.023,0.697-0.418,0.977-0.879,1.295c-0.279,0.193-0.455,0.26-0.82,0.012
		c-3.883-2.656-8.912-2.443-12.578,0.52c-3.443,2.783-4.835,6.635-5.538,10.826c-0.259,1.541-0.298,3.1-0.292,4.662
		c0.033,9.396,0.037,18.795,0.1,28.193c0.012,1.713,0.225,3.426,0.391,5.135c0.058,0.596-0.006,0.873-0.715,0.795
		c-3.229-0.352-6.462-0.342-9.692-0.006c-0.579,0.059-0.862-0.025-0.794-0.736c0.473-4.82,0.464-9.658,0.465-14.492
		c0.001-11.799-0.02-23.596-0.088-35.395c-0.018-3.152-0.227-6.305-0.383-9.453c-0.041-0.828-0.012-1.227,1.061-0.969
		c3.074,0.736,6.187,0.727,9.261-0.029c0.977-0.242,0.96,0.162,0.862,0.873c-0.447,3.291-0.547,6.605-0.623,9.92
		C192.591,191.746,192.594,191.893,192.594,192.037z"/>
	<path fill-rule="evenodd" clip-rule="evenodd" fill="#213F26" d="M165.317,130.703c0.773-0.813,1.322-1.426,1.911-2
		c4.332-4.219,11.819-5.292,17.044-2.402c4.201,2.323,5.848,6.173,6.104,10.729c0.224,3.994-0.132,7.99-0.185,11.984
		c-0.06,4.557-0.187,9.117,0.109,13.668c0.05,0.771-0.171,0.84-0.838,0.785c-1.954-0.164-3.919-0.184-5.87,0.002
		c-0.809,0.076-0.904-0.164-0.863-0.881c0.42-7.422,0.592-14.852,0.508-22.287c-0.025-2.348-0.359-4.627-1.493-6.711
		c-1.333-2.453-3.431-3.725-6.228-3.778c-6.129-0.116-9.713,3.399-10.074,10.009c-0.299,5.471-0.021,10.945,0.158,16.416
		c0.07,2.156,0.19,4.311,0.326,6.463c0.037,0.596-0.017,0.834-0.739,0.773c-2.152-0.18-4.315-0.172-6.47-0.004
		c-0.641,0.051-0.822-0.035-0.777-0.723c0.826-12.457,0.518-24.936,0.57-37.406c0.03-6.875-0.124-13.745-0.564-20.607
		c-0.051-0.771,0.029-1.066,0.912-0.871c2.012,0.441,4.06,0.469,6.068,0.007c1.066-0.245,1.049,0.227,0.996,1.015
		c-0.55,8.061-0.584,16.133-0.605,24.207C165.316,129.526,165.317,129.964,165.317,130.703z"/>
	<path fill-rule="evenodd" clip-rule="evenodd" fill="#213F26" d="M113.636,114.983c0.693-2.044,0.691-3.968-0.014-5.999
		c13.879,0.561,27.602,0.57,41.514-0.005c-0.594,1.997-0.797,3.942,0.082,6.018c-1.485-0.145-2.811-0.28-4.136-0.4
		c-3.94-0.357-7.893-0.429-11.845-0.519c-0.723-0.018-0.925,0.17-0.947,0.916c-0.305,10.149-0.234,20.301-0.186,30.451
		c0.028,5.75,0.302,11.494,0.636,17.234c0.046,0.793-0.239,0.824-0.872,0.781c-2.193-0.146-4.398-0.189-6.587-0.004
		c-1.011,0.088-1.247-0.154-1.185-1.148c0.76-12.334,0.576-24.684,0.568-37.029c-0.002-3.355-0.131-6.711-0.135-10.067
		c-0.002-0.886-0.246-1.163-1.152-1.139c-4.83,0.128-9.662,0.208-14.465,0.815C114.561,114.933,114.204,114.942,113.636,114.983z"/>
	<path fill-rule="evenodd" clip-rule="evenodd" fill="#3AA935" d="M368.22,32.592c-3.602,1.641-7.046,3.584-10.419,5.637
		c-6.265,3.813-12.095,8.191-17.086,13.611c-6.389,6.936-10.755,14.934-12.478,24.25c-0.423,2.285-0.719,4.631-0.402,7.325
		c-0.854-1.622-1.052-3.078-1.09-4.521c-0.106-4.076,0.796-7.99,2.121-11.816c1.854-5.35,4.374-10.367,7.665-14.979
		c2.118-2.969,4.989-5.156,7.928-7.217c6.827-4.788,14.243-8.514,21.87-11.838c0.548-0.238,1.102-0.461,1.652-0.691
		C368.233,32.26,368.277,32.375,368.22,32.592z"/>
	<path fill-rule="evenodd" clip-rule="evenodd" fill="#3AA935" d="M337.298,95.746c2.686-0.65,5.234-1.701,7.769-2.764
		c2.908-1.221,5.699-2.686,8.39-4.353c6.583-4.079,10.438-10.104,12.309-17.438c1.552-6.087,2.817-12.246,4.279-18.367
		c0.231,1.914-0.035,3.826-0.191,5.711c-0.376,4.523-1.091,9.007-2.329,13.391c-1.175,4.158-2.504,8.255-4.98,11.859
		c-2.745,3.994-6.701,6.451-11.008,8.377c-4.314,1.93-8.842,3.185-13.532,3.824C337.727,96.027,337.358,96.34,337.298,95.746z"/>
	<path fill-rule="evenodd" clip-rule="evenodd" fill="#54B02E" d="M368.22,32.592c-0.079-0.079-0.158-0.158-0.238-0.238
		c1.308-0.693,2.626-1.362,4.093-1.665l0,0C370.914,31.575,369.472,31.891,368.22,32.592z"/>
	<path fill-rule="evenodd" clip-rule="evenodd" fill="#66B52A" d="M337.298,95.746c0.165,0.285,0.457,0.197,0.705,0.24
		c-0.518,0.451-1.121,0.094-1.686,0.199C336.581,95.866,336.923,95.769,337.298,95.746z"/>
	<path fill-rule="evenodd" clip-rule="evenodd" fill="#66B52A" d="M372.074,30.688c0.262-0.292,0.55-0.514,1.021-0.4
		C372.818,30.672,372.452,30.695,372.074,30.688L372.074,30.688z"/>
	<path fill-rule="evenodd" clip-rule="evenodd" fill="#3AA935" d="M391.512,131.966c-6.511,5.896-13.331,11.403-20.673,16.233
		c-4.507,2.967-9.158,5.674-14.317,7.404c-2.783,0.932-5.668,1.248-8.556,1.549c-3.222,0.336-6.464,0.389-9.69,0.232
		c-6.394-0.311-12.712-1.084-18.526-4.066c-1.566-0.803-3.036-1.754-4.318-3.332c1.474,0.646,2.729,1.238,4.017,1.756
		c4.396,1.77,8.973,2.697,13.699,3.053c11.946,0.9,23.076-1.941,33.729-7.133c8.803-4.291,16.775-9.842,24.398-15.934
		C391.5,131.661,391.575,131.744,391.512,131.966z"/>
	<path fill-rule="evenodd" clip-rule="evenodd" fill="#3AA935" d="M306.075,133.889c3.08-4.836,6.655-9.279,10.896-13.138
		c4.444-4.044,9.343-7.362,15.393-8.531c2.955-0.571,5.929-0.443,8.926-0.231c3.826,0.271,7.581,0.885,11.31,1.732
		c5.654,1.285,11.118,3.143,16.43,5.457c0.249,0.107,0.482,0.249,0.668,0.537c-3.092-0.66-6.183-1.325-9.276-1.98
		c-5.174-1.096-10.29-2.58-15.539-3.185c-7.683-0.884-15.006,0.452-21.637,4.694c-5.682,3.637-10.683,8.08-15.32,12.949
		c-0.575,0.605-1.085,1.273-1.625,1.912C306.086,134.176,305.975,134.143,306.075,133.889z"/>
	<path fill-rule="evenodd" clip-rule="evenodd" fill="#51AF2F" d="M391.512,131.966c-0.079-0.079-0.158-0.158-0.237-0.237
		c1.184-1.035,2.367-2.07,3.551-3.106C393.996,130.023,392.723,130.963,391.512,131.966z"/>
	<path fill-rule="evenodd" clip-rule="evenodd" fill="#6FB728" d="M395.969,127.928c0.409-0.8,0.801-1.156,1.355-1.353
		C396.95,126.949,396.575,127.322,395.969,127.928z"/>
	<path fill-rule="evenodd" clip-rule="evenodd" fill="#69B529" d="M306.075,133.889c0.074,0.072,0.149,0.145,0.224,0.217
		c-0.156,0.209-0.312,0.418-0.56,0.752C305.613,134.326,305.84,134.105,306.075,133.889z"/>
	<path fill-rule="evenodd" clip-rule="evenodd" fill="#213F26" d="M266.718,145.158c0.34,15.273,0.573,30.445,0.36,45.646
		c-1.455-2.635-3.171-5.027-5.516-6.895c-5.418-4.316-11.684-5.168-18.25-4.014c-9.557,1.684-16.109,7.359-20.077,16.064
		c-3.959,8.688-3.971,17.754-1.932,26.865c1.329,5.938,4.164,11.137,8.965,15.053c5.2,4.242,11.314,5.527,17.856,5.221
		c5.869-0.275,10.912-2.459,15.098-6.621c1.614-1.604,2.836-3.496,3.985-5.205c0,3.148,0.025,6.398-0.019,9.648
		c-0.01,0.754,0.104,1.055,0.947,0.957c2.907-0.342,5.822-0.336,8.731-0.004c0.631,0.072,0.933-0.008,0.903-0.77
		c-0.069-1.836-0.017-3.678-0.064-5.516c-0.287-11.109-0.346-22.217-0.252-33.33c0.09-10.75,0.245-21.498,0.495-32.244
		c0.16-6.869,0.282-13.738,0.717-20.598c0.087-1.383,0.165-2.768,0.253-4.258C274.82,146.094,270.818,146.154,266.718,145.158z
		 M264.296,227.254c-1.746,4.055-4.521,7.357-8.548,9.379c-5.507,2.762-15.683,2.219-20.217-6.773
		c-2.722-5.396-3.531-11.133-3.503-17.07c0.055-6.363,0.752-12.607,3.741-18.363c2.214-4.26,5.392-7.541,10.279-8.436
		c8.423-1.539,16.694,1.291,19.83,11.516C268.953,207.529,268.471,217.559,264.296,227.254z"/>
	<path fill-rule="evenodd" clip-rule="evenodd" fill="#213F26" d="M345.677,200.859c-1.446-9.598-6.582-16.271-15.722-19.697
		c-4.937-1.85-10.08-1.992-15.253-1.428c-9.677,1.057-16.868,5.783-21.105,14.652c-3.434,7.188-4.331,14.859-3.529,22.678
		c0.927,9.039,5.127,16.313,12.88,21.26c11.252,7.182,27.732,6.279,38.847-1.982c0.662-0.492,0.997-1.004,1.057-1.848
		c0.109-1.553,0.33-3.1,0.581-4.637c0.107-0.65-0.02-1.039-0.62-1.344c-0.676-0.342-0.846,0.264-1.143,0.557
		c-5.692,5.625-12.38,8.818-20.532,8.246c-6.101-0.428-11.133-3.027-14.819-7.955c-3.916-5.234-4.724-11.313-4.523-17.629
		c0.019-0.574,0.375-0.596,0.81-0.609c1.637-0.047,3.272-0.133,4.91-0.172c5.432-0.129,10.864-0.33,16.3-0.188
		c7.074,0.123,14.147,0.229,21.22,0.393c0.861,0.021,0.775-0.488,0.811-0.971C346.071,207.072,346.144,203.961,345.677,200.859z
		 M333.684,205.609c-5.072,0.031-10.139,0.406-15.215,0.256c-5.075,0.154-10.141-0.217-15.213-0.258
		c-0.574-0.004-1.127,0.039-0.994-0.871c0.661-4.533,1.72-8.936,4.265-12.832c2.246-3.441,5.105-6.152,9.235-7.141
		c8.593-2.057,15.475,2.262,17.903,11.186c0.77,2.83,0.935,5.742,1.185,8.646C334.937,205.592,334.361,205.604,333.684,205.609z"/>
	<path fill-rule="evenodd" clip-rule="evenodd" fill="#213F26" d="M168.069,236.861c-3.124,1.156-5.543,0.26-6.486-2.787
		c-0.407-1.316-0.45-2.668-0.473-4.029c-0.176-10.432,0.538-20.85,0.492-31.281c-0.041-8.959-5.141-16-13.828-18.283
		c-10.219-2.686-19.415-0.131-27.691,6.209c-0.312,0.238-0.462,0.484-0.457,0.891c0.019,1.998,0.01,3.998,0.006,5.998
		c0,0.34,0.004,0.656,0.465,0.666c0.819,0.016,1.633,0.189,2.091-0.867c0.411-0.947,1.126-1.742,1.87-2.473
		c4.245-4.172,9.424-5.701,15.232-5.186c5.189,0.459,8.726,3.236,10.547,8.125c0.959,2.578,1.257,5.273,1.193,8.012
		c-0.062,2.688-0.699,3.594-3.222,4.563c-2.773,1.066-5.699,1.516-8.591,2.105c-4.217,0.859-8.543,1.201-12.637,2.646
		c-7.077,2.502-11.82,6.869-12.382,14.881c-0.54,7.711,3.992,14.525,11.512,16.334c8.062,1.939,15.538,0.545,22.074-4.814
		c1.063-0.871,2.097-1.781,3.198-2.719c0.109,0.301,0.182,0.484,0.244,0.672c0.074,0.229,0.129,0.461,0.212,0.686
		c1.153,3.139,3.394,4.984,6.697,5.414c3.005,0.389,5.982,0.09,8.896-0.734c1.729-0.49,1.721-0.52,1.721-2.361
		c0-0.6,0-1.199,0-1.992C168.413,236.699,168.247,236.797,168.069,236.861z M150.563,228.305c-0.01,0.387-0.137,0.691-0.352,0.984
		c-3.354,4.57-7.534,7.719-13.442,8.105c-5.385,0.354-10.31-3.416-11.15-8.73c-0.637-4.027-0.275-7.832,2.831-10.889
		c2.292-2.256,5.185-3.361,8.211-4.213c4.116-1.156,8.374-1.631,12.522-2.627c0.577-0.139,1.148-0.301,1.832-0.48
		C150.858,216.498,150.702,222.4,150.563,228.305z"/>
	<path fill-rule="evenodd" clip-rule="evenodd" fill="#3AA935" d="M415.738,71.226c-9.146,1.009-18.055,2.88-25.906,7.989
		c-5.897,3.838-10.61,8.772-13.174,15.895c-0.081-2.408,0.635-4.246,1.617-5.956c3.354-5.835,8.026-10.421,13.802-13.804
		c2.941-1.725,6.321-2.38,9.663-2.982c4.154-0.75,8.336-1.264,12.562-1.365C414.796,70.979,415.353,70.552,415.738,71.226z"/>
	<path fill-rule="evenodd" clip-rule="evenodd" fill="#3AA935" d="M382.648,106.279c3.545-0.051,7.078-0.215,10.572-0.9
		c5.475-1.075,9.586-4.186,12.76-8.613c2.324-3.241,4.495-6.592,6.741-9.889c0.209-0.307,0.307-0.731,0.904-0.859
		c-1.042,2.604-2.278,5.002-3.654,7.324c-2.04,3.447-4.452,6.599-7.316,9.424c-2.818,2.78-6.26,3.982-10.065,4.488
		c-4.008,0.532-7.939,0.023-11.859-0.744C381.294,105.807,381.997,106.258,382.648,106.279z"/>
	<path fill-rule="evenodd" clip-rule="evenodd" fill="#76B926" d="M418.385,70.752c1.907-0.494,3.834-0.096,5.754-0.121
		c-1.607,0.033-3.179,0.514-4.797,0.371C419.071,70.732,418.649,71.043,418.385,70.752z"/>
	<path fill-rule="evenodd" clip-rule="evenodd" fill="#48AD32" d="M418.385,70.752c0.322,0.07,0.708-0.102,0.957,0.25
		c-1.201,0.074-2.402,0.148-3.604,0.225c-0.428-0.403-0.961-0.132-1.437-0.225C415.639,70.526,417.026,70.889,418.385,70.752z"/>
	<path fill-rule="evenodd" clip-rule="evenodd" fill="#4EAE30" d="M382.648,106.279c-0.634,0.126-1.324-0.217-1.918,0.231
		c-0.486-0.104-0.972-0.21-1.457-0.313C380.415,106.152,381.55,105.83,382.648,106.279z"/>
	<path fill-rule="evenodd" clip-rule="evenodd" fill="#213F26" d="M232.844,139.332c-0.527-6.248-3.465-10.857-9.37-13.34
		c-2.75-1.156-5.654-1.307-8.59-1.227c-7.383,0.203-13.009,4.357-15.436,11.338c-1.297,3.73-1.637,7.572-1.355,11.461
		c0.376,5.195,2.571,9.531,6.699,12.758c6.643,5.195,17.73,5.521,25.616-0.422c0.298-0.225,0.506-0.465,0.545-0.871
		c0.103-1.072,0.211-2.146,0.394-3.207c0.096-0.549-0.142-0.787-0.546-1.049c-0.514-0.334-0.691,0.059-0.956,0.34
		c-2.104,2.238-4.672,3.713-7.604,4.58c-6.004,1.773-12.326-0.91-14.895-6.316c-1.213-2.555-1.549-5.262-1.479-8.051
		c0.013-0.518,0.181-0.666,0.691-0.688c7.43-0.332,14.858-0.199,22.288,0.037c1.039,0,2.081-0.049,3.116,0.02
		c0.668,0.043,0.848-0.254,0.854-0.813C232.834,142.365,232.971,140.838,232.844,139.332z M224.595,140.738
		c-2.952-0.029-5.905-0.014-8.858-0.014c-2.913,0-5.826-0.014-8.739,0.01c-0.604,0.006-0.882-0.119-0.771-0.797
		c0.575-3.527,1.695-6.754,4.307-9.391c3.143-3.174,10.605-3.689,13.441,2.377c1.036,2.215,1.38,4.557,1.512,6.963
		C225.524,140.598,225.245,140.744,224.595,140.738z"/>
</g>
</svg>
