<svg xmlns="http://www.w3.org/2000/svg" width="50" height="55.607" viewBox="0 0 50 55.607">
  <g id="package" transform="translate(1 1.066)">
    <line id="Ligne_4" data-name="Ligne 4" x1="24" y1="13.84" transform="translate(12 5.888)" fill="none" stroke="#fff" stroke-linecap="round" stroke-linejoin="round" stroke-width="2"/>
    <path id="Tracé_55" data-name="Tracé 55" d="M51,39.33V18a5.333,5.333,0,0,0-2.667-4.613L29.667,2.717a5.333,5.333,0,0,0-5.333,0L5.667,13.383A5.333,5.333,0,0,0,3,18V39.33a5.333,5.333,0,0,0,2.667,4.613L24.333,54.61a5.333,5.333,0,0,0,5.333,0L48.333,43.943A5.333,5.333,0,0,0,51,39.33Z" transform="translate(-3 -2.002)" fill="none" stroke="#fff" stroke-linecap="round" stroke-linejoin="round" stroke-width="2"/>
    <path id="Tracé_56" data-name="Tracé 56" d="M3.27,6.96,26.55,20.427,49.83,6.96" transform="translate(-2.55 6.261)" fill="none" stroke="#fff" stroke-linecap="round" stroke-linejoin="round" stroke-width="2"/>
    <line id="Ligne_5" data-name="Ligne 5" y1="26.88" transform="translate(24 26.661)" fill="none" stroke="#fff" stroke-linecap="round" stroke-linejoin="round" stroke-width="2"/>
  </g>
</svg>
