<svg xmlns="http://www.w3.org/2000/svg" width="49.442" height="49.536" viewBox="0 0 49.442 49.536">
  <path id="phone" d="M49.548,37.587v7.156a4.77,4.77,0,0,1-5.2,4.77A47.2,47.2,0,0,1,23.765,42.19,46.511,46.511,0,0,1,9.454,27.879,47.2,47.2,0,0,1,2.131,7.2,4.77,4.77,0,0,1,6.878,2h7.156A4.77,4.77,0,0,1,18.8,6.1a30.626,30.626,0,0,0,1.67,6.7A4.77,4.77,0,0,1,19.4,17.838l-3.029,3.029A38.163,38.163,0,0,0,30.682,35.178l3.029-3.029a4.77,4.77,0,0,1,5.033-1.073,30.625,30.625,0,0,0,6.7,1.67,4.77,4.77,0,0,1,4.1,4.842Z" transform="translate(-1.11 -1)" fill="none" stroke="#fff" stroke-linecap="round" stroke-linejoin="round" stroke-width="2"/>
</svg>
