<svg xmlns="http://www.w3.org/2000/svg" width="75.37" height="83.934" viewBox="0 0 75.37 83.934">
  <g id="package" transform="translate(1 1.095)">
    <line id="Ligne_4" data-name="Ligne 4" x1="36.685" y1="21.155" transform="translate(18.343 8.999)" fill="none" stroke="#e0a315" stroke-linecap="round" stroke-linejoin="round" stroke-width="2"/>
    <path id="Tracé_55" data-name="Tracé 55" d="M76.37,59.059v-32.6A8.152,8.152,0,0,0,72.293,19.4L43.762,3.095a8.152,8.152,0,0,0-8.152,0L7.077,19.4A8.152,8.152,0,0,0,3,26.455v32.6A8.152,8.152,0,0,0,7.077,66.11l28.532,16.3a8.152,8.152,0,0,0,8.152,0l28.533-16.3A8.152,8.152,0,0,0,76.37,59.059Z" transform="translate(-3 -2.003)" fill="none" stroke="#e0a315" stroke-linecap="round" stroke-linejoin="round" stroke-width="2"/>
    <path id="Tracé_56" data-name="Tracé 56" d="M3.27,6.96,38.854,27.545,74.439,6.96" transform="translate(-2.169 13.248)" fill="none" stroke="#e0a315" stroke-linecap="round" stroke-linejoin="round" stroke-width="2"/>
    <line id="Ligne_5" data-name="Ligne 5" y1="41.087" transform="translate(36.685 40.752)" fill="none" stroke="#e0a315" stroke-linecap="round" stroke-linejoin="round" stroke-width="2"/>
  </g>
</svg>
