<svg xmlns="http://www.w3.org/2000/svg" width="74.513" height="74.661" viewBox="0 0 74.513 74.661">
  <path id="phone" d="M74.62,56.4V67.335a7.291,7.291,0,0,1-7.948,7.291A72.147,72.147,0,0,1,35.21,63.432,71.094,71.094,0,0,1,13.335,41.557,72.147,72.147,0,0,1,2.141,9.949,7.291,7.291,0,0,1,9.4,2H20.336a7.291,7.291,0,0,1,7.285,6.267,46.813,46.813,0,0,0,2.553,10.241,7.291,7.291,0,0,1-1.636,7.7l-4.63,4.63A58.334,58.334,0,0,0,45.783,52.714l4.63-4.63a7.291,7.291,0,0,1,7.693-1.64A46.812,46.812,0,0,0,68.347,49a7.291,7.291,0,0,1,6.267,7.4Z" transform="translate(-1.108 -1)" fill="none" stroke="#e0a315" stroke-linecap="round" stroke-linejoin="round" stroke-width="2"/>
</svg>
