<svg xmlns="http://www.w3.org/2000/svg" width="45.502" height="32.572" viewBox="0 0 45.502 32.572">
  <g id="youtube" transform="translate(0.001 -3)">
    <path id="Tracé_58" data-name="Tracé 58" d="M43.59,8.785A5.5,5.5,0,0,0,39.754,4.83c-3.4-.83-17-.83-17-.83s-13.6,0-17,.91A5.5,5.5,0,0,0,1.91,8.864,57.338,57.338,0,0,0,1,19.323a57.339,57.339,0,0,0,.91,10.539,5.5,5.5,0,0,0,3.836,3.8c3.4.91,17,.91,17,.91s13.6,0,17-.91A5.5,5.5,0,0,0,43.59,29.7a57.339,57.339,0,0,0,.91-10.38,57.341,57.341,0,0,0-.91-10.539Z" fill="none" stroke="#fff" stroke-linecap="round" stroke-linejoin="round" stroke-width="2"/>
    <path id="Tracé_59" data-name="Tracé 59" d="M9.75,21.411l11.369-6.466L9.75,8.48Z" transform="translate(8.551 4.378)" fill="none" stroke="#fff" stroke-linecap="round" stroke-linejoin="round" stroke-width="2"/>
  </g>
</svg>
